<?xml version="1.0" standalone="no"?>
<!DOCTYPE svg PUBLIC "-//W3C//DTD SVG 20010904//EN"
 "http://www.w3.org/TR/2001/REC-SVG-20010904/DTD/svg10.dtd">
<svg version="1.0" xmlns="http://www.w3.org/2000/svg"
 width="7730.000000pt" height="7730.000000pt" viewBox="0 0 7730.000000 7730.000000"
 preserveAspectRatio="xMidYMid meet">
<metadata>
Created by potrace 1.16, written by Peter Selinger 2001-2019
</metadata>
<g transform="translate(0.000000,7730.000000) scale(0.100000,-0.100000)"
fill="#000000" stroke="none">
<path d="M25300 67703 c-1727 -17 -3733 -115 -4160 -203 -417 -86 -851 -333
-1165 -661 -431 -451 -698 -1027 -791 -1706 -11 -82 -17 -301 -24 -913 -9
-732 -31 -4502 -27 -4507 1 -1 41 62 88 140 129 213 1138 1878 1662 2742 904
1493 1100 1811 1139 1852 22 22 62 53 87 67 108 59 23 57 1791 40 888 -8 1665
-17 1727 -20 l112 -6 -23 -61 c-13 -34 -124 -278 -246 -542 -122 -264 -246
-532 -275 -595 -29 -63 -715 -1553 -1524 -3310 -810 -1757 -1479 -3208 -1486
-3225 -8 -16 -90 -194 -182 -395 l-168 -365 0 -890 c0 -811 2 -898 18 -985 82
-441 262 -798 557 -1104 375 -390 856 -627 1445 -712 151 -22 600 -26 745 -6
493 67 917 241 1270 522 107 85 287 269 369 378 163 215 283 460 350 713 62
233 62 224 72 1109 5 448 12 834 15 858 5 39 7 42 35 42 21 0 32 6 39 23 5 12
210 670 455 1462 563 1816 623 2012 790 2550 76 242 146 469 157 505 11 36 81
261 155 500 74 239 175 563 223 720 49 157 148 476 220 710 73 234 244 787
382 1230 137 443 252 808 256 811 4 4 786 -1 1737 -12 952 -10 1769 -18 1817
-19 l88 0 -5 -27 c-2 -16 -9 -57 -15 -93 -5 -36 -35 -222 -65 -415 -31 -192
-98 -613 -150 -935 -52 -322 -103 -643 -115 -715 -11 -71 -29 -184 -39 -250
-11 -66 -45 -277 -75 -470 -31 -192 -72 -449 -92 -570 -19 -121 -44 -275 -55
-342 -10 -68 -28 -180 -39 -250 -11 -71 -30 -184 -41 -253 -11 -69 -26 -165
-34 -215 -8 -49 -30 -187 -49 -305 -19 -118 -58 -359 -86 -535 -28 -176 -64
-401 -80 -500 -16 -99 -117 -733 -225 -1410 -109 -676 -201 -1233 -206 -1236
-9 -5 -30 -1532 -23 -1609 34 -358 82 -545 204 -795 110 -226 242 -406 436
-595 269 -262 581 -448 954 -568 574 -185 1264 -175 1821 28 848 309 1419
1022 1479 1845 6 77 13 476 16 888 6 722 7 747 25 747 18 0 19 9 19 133 -1
372 81 8254 86 8325 l6 82 246 0 c136 0 843 -7 1572 -15 729 -8 1436 -15 1571
-15 l246 0 22 -152 c12 -84 51 -362 87 -618 35 -256 91 -656 124 -890 33 -234
82 -589 110 -790 28 -201 64 -459 80 -575 16 -115 43 -311 60 -435 54 -394 80
-581 100 -720 11 -74 38 -268 60 -430 56 -408 126 -912 155 -1115 13 -93 38
-271 55 -395 17 -124 44 -319 60 -435 29 -205 115 -827 185 -1330 19 -137 48
-342 64 -455 15 -113 26 -208 24 -212 -2 -5 -12 -8 -23 -8 -16 0 -19 -12 -24
-122 -12 -255 -16 -1419 -6 -1541 27 -309 117 -594 270 -851 230 -386 561
-684 995 -896 244 -120 463 -191 722 -235 366 -63 758 -58 1111 14 541 111
1056 408 1384 800 274 327 435 705 477 1116 5 55 13 451 16 880 l7 781 -147
509 c-80 281 -171 593 -200 695 -30 102 -111 383 -180 625 -70 242 -151 523
-180 625 -30 102 -96 334 -149 515 -52 182 -406 1410 -786 2730 -380 1320
-721 2504 -757 2632 -37 128 -65 235 -62 238 10 9 3630 -32 3639 -41 4 -5 65
-142 135 -304 70 -162 143 -329 162 -370 20 -41 318 -734 663 -1540 570 -1329
824 -1917 1030 -2390 40 -91 107 -246 150 -345 368 -850 920 -2084 1303 -2916
308 -668 323 -699 343 -699 15 0 16 -22 10 -287 -3 -159 -7 -538 -8 -843 -2
-621 2 -676 67 -928 142 -541 489 -993 996 -1293 136 -81 230 -125 389 -184
l115 -43 -3 -944 c-8 -2635 -44 -5670 -118 -9923 l-6 -360 133 -77 c610 -351
1244 -638 1963 -889 l168 -59 -6 462 c-3 255 -8 555 -11 668 -3 113 -7 342
-10 510 -3 168 -7 442 -10 610 -3 168 -7 402 -10 520 -3 118 -7 343 -10 500
-6 318 -15 763 -30 1435 -7 306 -14 634 -20 930 -3 143 -7 325 -10 405 -3 80
-7 262 -10 405 -3 143 -7 343 -10 445 -3 102 -7 271 -10 375 -3 105 -7 282
-10 395 -3 113 -7 288 -10 390 -3 102 -7 284 -10 405 -3 121 -8 276 -10 345
-7 203 -15 451 -20 675 -3 116 -8 287 -10 380 -3 94 -14 465 -25 825 -11 360
-24 779 -30 930 -5 151 -13 372 -16 491 l-7 215 49 19 c74 27 238 111 339 172
132 81 266 185 383 298 365 351 572 764 636 1272 8 60 15 443 22 1115 l5 587
-22 -4 c-20 -4 -21 -3 -4 15 9 10 19 36 22 58 5 37 -10 64 -299 543 -344 568
-712 1187 -1128 1894 l-282 480 -9 155 c-58 1003 -95 1614 -124 2055 -93 1404
-202 2774 -240 3013 -109 677 -400 1277 -839 1730 -370 381 -802 623 -1286
722 -263 54 -2770 274 -5245 460 -368 28 -785 59 -925 70 -2919 221 -7704 500
-10855 635 -520 22 -814 33 -1910 75 -2775 106 -5636 155 -7795 133z"/>
<path d="M21143 53020 c-230 -221 -594 -426 -940 -529 -288 -85 -501 -114
-844 -115 l-257 -1 -7 -2765 c-4 -1521 -5 -5478 -2 -8795 5 -5414 13 -7803 35
-11060 4 -566 6 -1032 5 -1034 -1 -2 -215 3 -475 11 -260 8 -475 14 -476 12
-2 -1 5 -42 17 -91 48 -205 82 -467 100 -766 5 -82 12 -151 15 -154 5 -5 3848
-132 4024 -133 l94 0 -7 118 c-19 349 -85 661 -178 842 l-34 65 -369 12 -369
12 -21 -25 -21 -25 -204 0 c-191 1 -349 9 -349 18 0 2 30 63 67 136 l67 132
-3 2655 c-6 5730 60 12503 205 21148 4 221 5 402 3 402 -2 0 -37 -32 -76 -70z"/>
<path d="M59227 45590 c-153 -39 -301 -195 -396 -420 -102 -238 -130 -568 -67
-766 79 -248 336 -469 747 -643 228 -96 537 -189 969 -291 140 -33 298 -74
350 -90 116 -37 230 -98 250 -132 12 -23 12 -30 -2 -60 -9 -18 -28 -72 -43
-120 -32 -103 -119 -287 -198 -416 -66 -108 -73 -148 -31 -181 45 -35 58 -34
156 13 297 145 474 138 518 -20 18 -62 8 -168 -21 -229 -59 -128 -233 -242
-444 -291 -60 -15 -115 -28 -121 -29 -15 -4 -164 -450 -164 -488 0 -39 40 -77
82 -77 18 0 72 9 119 20 364 80 776 337 1172 732 l157 157 143 -5 c218 -9 357
24 475 110 110 81 163 201 164 372 2 243 -99 413 -291 489 -36 15 -74 34 -83
42 -30 27 -22 73 21 125 54 66 86 123 113 203 19 59 23 90 23 200 0 110 -5
145 -27 225 -62 221 -142 366 -277 500 -81 80 -111 103 -191 143 -52 26 -131
57 -175 68 -107 28 -295 36 -443 19 l-115 -14 -23 28 c-20 23 -24 38 -24 95 0
194 -114 409 -286 540 -94 71 -269 156 -374 181 -162 38 -317 19 -475 -60
-130 -64 -227 -146 -366 -308 -55 -65 -78 -60 -164 36 -222 246 -369 340 -540
348 -44 2 -97 -1 -118 -6z"/>
<path d="M55366 39678 c-137 -589 -392 -1248 -671 -1738 -135 -236 -356 -558
-473 -690 l-38 -43 -44 23 c-72 36 -377 221 -517 313 -252 167 -519 364 -733
542 l-105 87 -2 -39 c-1 -21 -7 -279 -13 -573 -24 -1222 -81 -3661 -125 -5440
-107 -4253 -273 -10054 -295 -10280 -88 -903 -533 -1695 -1206 -2146 -210
-140 -527 -274 -769 -323 -348 -71 -2008 -200 -3465 -271 -1479 -71 -4009
-140 -5154 -140 l-269 0 7 58 c8 71 -9 326 -30 452 -85 509 -318 964 -684
1330 -548 550 -1338 802 -2110 674 -925 -153 -1688 -840 -1936 -1744 -58 -212
-75 -331 -81 -568 l-6 -214 -266 7 c-146 4 -267 9 -269 10 -2 1 -5 49 -7 106
-4 103 -7 226 -25 1104 -5 253 -12 568 -15 700 -3 132 -10 458 -15 725 -5 267
-12 600 -15 740 -3 140 -7 368 -10 505 -3 138 -7 349 -10 470 -3 121 -7 339
-10 485 -7 379 -15 745 -20 970 -3 107 -7 328 -10 490 -3 162 -8 360 -10 440
-2 80 -7 318 -10 530 -10 624 -24 769 -94 979 -77 229 -196 418 -380 601 -180
179 -354 289 -584 369 -190 66 -338 83 -862 95 -132 4 -305 8 -385 11 -301 10
-462 15 -700 21 -135 3 -273 7 -307 9 -35 2 -63 -1 -63 -6 0 -5 11 -71 25
-147 35 -188 62 -427 75 -677 6 -115 14 -213 18 -216 4 -3 531 -22 1172 -42
855 -27 1179 -41 1216 -51 129 -34 238 -126 300 -251 49 -99 51 -142 30 -595
-33 -730 -40 -1079 -40 -2075 0 -1096 12 -1651 59 -2705 102 -2253 327 -4783
655 -7345 28 -214 52 -404 55 -421 2 -17 18 -132 34 -255 17 -123 40 -294 51
-379 29 -218 113 -797 160 -1105 43 -276 49 -383 26 -458 l-14 -47 836 0 c848
0 3354 15 4287 25 4436 47 7562 130 10025 265 911 50 1036 65 1337 156 812
246 1517 874 1938 1729 251 509 383 1032 415 1640 24 458 5 11252 -25 14445
-3 278 -7 915 -10 1415 -3 501 -7 1050 -10 1220 -2 171 -7 654 -11 1075 l-6
765 177 -335 c895 -1696 1555 -2838 2024 -3500 119 -169 160 -214 209 -228 28
-9 259 -9 913 -2 481 5 888 10 906 10 27 0 33 -5 42 -32 39 -124 283 -1107
382 -1543 l60 -260 59 -765 60 -765 11 -995 c11 -995 7 -2154 -11 -3330 -71
-4542 -350 -8012 -817 -10137 -38 -172 -38 -203 -3 -261 27 -44 66 -66 190
-107 230 -76 520 -130 765 -141 149 -7 189 0 261 49 97 65 98 67 285 767 490
1831 946 3941 1263 5845 237 1423 428 2916 517 4058 20 262 28 322 35 287 8
-38 78 -643 114 -990 208 -2019 330 -4494 405 -8235 21 -1055 35 -1524 45
-1565 22 -83 90 -147 183 -174 197 -57 591 -63 773 -11 62 18 135 79 163 138
60 127 249 1294 385 2382 286 2292 458 4651 507 6985 13 598 7 2074 -10 2550
-51 1420 -132 2439 -277 3513 l-37 269 27 281 c76 814 148 1951 168 2677 l3
105 -105 2 c-793 17 -1695 261 -2712 734 -194 90 -535 264 -708 361 -74 42
-117 61 -122 54 -4 -6 -10 -28 -13 -49 -10 -54 -32 -60 -190 -54 -148 6 -235
26 -348 83 -111 56 -158 94 -347 280 -170 168 -231 213 -284 214 -11 0 -58
-19 -105 -42 -79 -40 -91 -43 -166 -43 -70 0 -86 4 -127 28 -47 27 -112 87
-128 118 -7 12 21 48 116 152 68 75 124 138 124 141 0 3 -25 -4 -55 -14 -163
-56 -276 -19 -334 110 -35 76 -34 77 113 191 74 57 134 104 133 106 -2 1 -20
-2 -42 -7 -62 -15 -177 -12 -228 6 -96 33 -188 152 -203 264 l-6 46 223 72
c723 232 1205 326 1422 278 250 -56 414 -235 529 -580 32 -95 42 -142 47 -219
l6 -99 135 -60 c665 -295 1317 -487 1870 -549 171 -20 538 -17 680 4 332 51
597 165 803 347 l47 42 0 301 c0 315 -11 754 -31 1257 -6 162 -10 303 -8 313
3 13 18 -1 55 -50 166 -221 279 -436 329 -628 10 -38 21 -73 25 -78 3 -4 65
20 136 54 596 282 1243 467 1957 559 87 11 174 20 195 20 70 0 70 2 28 172
-124 501 -372 1038 -716 1554 -508 761 -1275 1555 -2136 2210 -198 151 -314
230 -349 237 -16 3 -91 20 -165 37 -289 66 -734 155 -1150 230 -126 23 -687
116 -785 131 -38 5 -80 12 -92 15 -20 4 -23 0 -23 -29 0 -50 -23 -73 -118
-121 -176 -88 -397 -157 -617 -192 -148 -24 -467 -25 -616 -1 -346 54 -680
181 -957 365 -87 57 -158 137 -184 207 -11 32 -16 35 -53 36 -22 0 -60 2 -85
4 -146 11 -425 15 -1025 15 -589 0 -845 6 -1025 25 -25 2 -76 7 -115 10 -467
40 -1124 158 -1645 296 -119 32 -378 105 -402 114 -10 4 -20 -27 -42 -117z
m564 -3288 c1754 -52 3152 -175 3409 -301 88 -43 187 -142 229 -229 17 -36
110 -330 205 -655 l174 -590 -58 -19 c-32 -11 -61 -18 -63 -15 -3 3 -82 266
-176 584 -93 319 -178 598 -189 620 -46 98 -122 168 -221 206 -159 60 -931
147 -1765 198 -585 36 -1909 89 -2287 91 -15 0 -18 10 -18 66 l0 66 208 -6
c114 -4 362 -11 552 -16z m1475 -1015 c151 -39 260 -126 327 -261 38 -77 41
-91 46 -184 6 -123 -13 -204 -68 -288 -140 -216 -406 -293 -634 -182 -193 93
-306 321 -262 530 21 101 57 170 127 244 120 129 299 183 464 141z m-18035
-13959 c603 -81 1120 -368 1525 -846 60 -71 181 -252 239 -359 151 -274 246
-585 277 -898 24 -247 0 -575 -61 -811 -226 -887 -946 -1560 -1850 -1731 -393
-74 -818 -41 -1210 94 -140 48 -381 168 -510 254 -492 326 -842 815 -985 1376
-58 228 -70 323 -70 585 0 249 10 343 60 555 220 933 1014 1651 1965 1779 140
19 485 20 620 2z"/>
<path d="M47560 37740 c-841 -77 -1636 -395 -2280 -914 -1224 -985 -1797
-2528 -1514 -4076 218 -1189 957 -2240 2014 -2865 488 -289 1037 -473 1645
-552 202 -26 788 -26 990 0 616 80 1161 267 1675 574 1041 623 1766 1673 1984
2873 50 273 60 403 61 745 0 334 -6 418 -50 694 -127 783 -486 1531 -1020
2126 -64 71 -275 283 -339 340 -633 568 -1443 932 -2316 1041 -155 19 -694 28
-850 14z m820 -145 c731 -90 1361 -334 1940 -753 536 -387 980 -915 1271
-1510 366 -746 493 -1567 374 -2397 -109 -755 -419 -1443 -920 -2045 -102
-122 -363 -383 -485 -485 -580 -482 -1255 -794 -1971 -910 -271 -43 -361 -50
-674 -50 -321 1 -457 12 -725 61 -1203 220 -2228 949 -2835 2019 -264 464
-428 968 -501 1540 -26 201 -26 720 -1 925 65 518 193 944 416 1385 116 228
228 410 366 594 716 955 1780 1544 2960 1641 158 12 636 4 785 -15z"/>
<path d="M12900 28914 c-332 -20 -642 -94 -895 -213 -504 -238 -800 -657 -890
-1261 -133 -889 -625 -5619 -1455 -14000 -134 -1351 -141 -1433 -136 -1580 6
-172 28 -297 77 -437 78 -222 198 -414 363 -578 199 -198 413 -320 690 -392
101 -27 102 -27 601 -32 l499 -6 27 -107 c79 -311 284 -567 565 -707 105 -52
184 -78 304 -98 95 -17 266 -14 5397 95 2914 62 5366 115 5448 117 83 3 274 7
425 10 467 9 757 15 950 20 102 3 327 7 500 10 173 3 410 7 525 10 116 3 323
7 460 10 138 3 324 7 415 10 91 2 314 7 495 10 182 3 409 7 505 10 301 8 593
15 925 20 176 3 381 8 455 10 74 2 270 7 435 10 1700 31 5024 107 5110 116
281 29 543 125 791 290 151 100 363 312 463 463 109 164 179 312 234 492 l25
82 -62 -29 c-33 -16 -84 -33 -111 -38 -28 -5 -219 -12 -425 -15 -206 -3 -496
-8 -645 -11 -148 -3 -439 -7 -645 -10 -206 -3 -499 -7 -650 -10 -151 -3 -435
-7 -630 -10 -195 -3 -458 -8 -585 -10 -126 -3 -419 -7 -650 -10 -231 -3 -553
-7 -715 -10 -162 -3 -416 -7 -565 -10 -148 -2 -490 -7 -760 -10 -269 -3 -544
-7 -610 -10 -66 -3 -304 -7 -530 -10 -673 -9 -1066 -15 -1325 -20 -135 -3
-432 -7 -660 -10 -228 -3 -516 -7 -640 -10 -124 -3 -430 -7 -680 -10 -250 -3
-554 -7 -675 -10 -121 -3 -398 -7 -615 -10 -217 -3 -487 -7 -600 -10 -113 -3
-394 -7 -625 -10 -231 -3 -528 -7 -660 -10 -132 -3 -415 -7 -630 -10 -214 -3
-516 -7 -670 -10 -154 -3 -446 -7 -650 -10 -203 -3 -496 -7 -650 -10 -465 -8
-899 -15 -2540 -40 -3899 -60 -3854 -59 -3912 -47 -123 26 -240 117 -294 229
-35 73 -48 153 -83 513 -212 2130 -243 6258 -91 12050 42 1610 110 3645 125
3762 28 223 192 401 418 454 54 13 101 15 242 10 1272 -45 4215 -134 4221
-129 7 9 -5 201 -21 333 -16 127 -56 315 -85 405 -27 81 -93 226 -118 257 -12
16 -67 19 -548 32 -294 9 -667 20 -829 26 -162 6 -758 24 -1325 40 -638 18
-1085 35 -1175 45 -145 15 -508 26 -630 19z m-1056 -2846 c20 -33 -2 -3427
-23 -3452 -18 -22 -64 -20 -85 3 -16 18 -16 118 -5 1722 12 1862 8 1749 69
1749 20 0 34 -7 44 -22z m-44 -5598 c11 -11 20 -26 20 -32 0 -7 -16 -2192 -34
-4856 -32 -4571 -35 -4844 -52 -4863 -22 -24 -56 -24 -77 -1 -16 17 -15 332
13 4598 33 4999 35 5137 57 5159 20 21 49 19 73 -5z"/>
<path d="M22985 28574 c37 -146 88 -498 100 -689 4 -55 10 -147 13 -205 l7
-105 50 -3 c28 -1 896 -29 1930 -62 1034 -32 1938 -62 2009 -65 l129 -6 -6
153 c-14 335 -70 621 -162 826 l-27 59 -91 7 c-51 3 -227 9 -393 12 l-301 7
-16 -23 c-16 -23 -18 -23 -296 -28 -155 -3 -281 -2 -281 2 0 4 7 20 15 36 l15
28 -103 6 c-56 3 -500 17 -987 31 -487 14 -934 27 -995 30 -60 2 -224 7 -364
11 l-254 7 8 -29z"/>
<path d="M27780 28458 c0 -2 11 -57 24 -123 44 -218 86 -614 86 -816 l0 -97
153 -6 c193 -9 3862 -126 3929 -126 l50 0 -7 118 c-22 394 -74 675 -161 873
l-25 56 -177 6 c-610 23 -842 26 -1055 13 -133 -7 -147 -7 -141 8 5 14 -4 16
-67 17 -41 0 -90 2 -109 4 -19 1 -159 6 -310 9 -151 4 -306 9 -345 11 -38 2
-178 7 -310 10 -132 3 -305 7 -385 10 -280 9 -457 15 -650 20 -107 3 -264 8
-347 11 -84 3 -153 4 -153 2z"/>
<path d="M43530 28159 c-874 -76 -1681 -514 -2229 -1209 -521 -660 -755 -1498
-655 -2348 112 -957 670 -1825 1500 -2335 789 -483 1788 -597 2664 -302 618
208 1154 594 1540 1110 345 460 542 955 622 1565 19 144 16 575 -5 735 -75
567 -284 1081 -620 1527 -546 725 -1373 1181 -2280 1257 -145 12 -396 12 -537
0z m598 -104 c352 -37 687 -131 1001 -281 625 -299 1131 -794 1439 -1409 292
-584 390 -1261 277 -1918 -113 -658 -463 -1291 -960 -1740 -523 -472 -1165
-746 -1871 -798 -141 -10 -397 -7 -489 6 -16 2 -73 9 -125 15 -271 33 -590
123 -859 244 -743 334 -1340 970 -1624 1732 -134 360 -191 676 -191 1074 -1
304 21 488 89 760 109 436 306 830 594 1190 102 127 321 347 451 452 466 378
1057 621 1645 677 152 14 465 12 623 -4z"/>
<path d="M17548 26925 c-223 -175 -291 -476 -165 -734 42 -87 160 -207 242
-248 110 -55 161 -68 275 -68 124 0 217 25 310 86 168 108 257 266 267 469 6
121 -8 195 -59 297 -28 58 -105 159 -114 150 -4 -3 -5 -19 -25 -276 -12 -161
-29 -222 -84 -294 -98 -128 -341 -210 -485 -162 -69 23 -136 84 -150 136 -8
30 -5 86 14 252 14 116 28 248 31 292 3 44 8 95 11 113 3 17 1 32 -3 32 -4 0
-34 -20 -65 -45z"/>
<path d="M22349 26706 c-181 -132 -272 -374 -224 -598 79 -374 492 -571 835
-398 280 142 395 495 254 785 -27 56 -109 165 -124 165 -6 0 -10 -21 -10 -47
-1 -142 -23 -291 -52 -352 -96 -200 -435 -308 -597 -190 -80 58 -94 105 -75
251 19 146 46 410 42 413 -2 2 -24 -11 -49 -29z"/>
<path d="M27108 26472 c-246 -262 -198 -689 100 -885 101 -67 169 -89 291 -95
186 -9 314 39 441 167 119 119 170 245 170 416 0 106 -16 173 -65 271 -34 71
-148 204 -162 190 -4 -3 -8 -28 -10 -54 -16 -225 -23 -268 -53 -329 -70 -143
-240 -238 -425 -237 -106 0 -166 23 -215 82 -49 59 -49 61 -10 400 6 51 10
105 8 119 -3 24 -7 22 -70 -45z"/>
<path d="M31922 26452 c-230 -224 -240 -587 -24 -823 66 -71 139 -119 240
-157 57 -22 84 -26 182 -26 127 -1 196 16 295 73 322 185 388 634 133 907 -34
36 -64 61 -68 57 -5 -4 -11 -60 -15 -123 -12 -208 -22 -270 -55 -337 -34 -69
-107 -141 -180 -178 -114 -58 -273 -76 -362 -42 -58 23 -124 92 -133 141 -4
20 2 115 14 213 31 265 38 343 30 343 -4 0 -30 -22 -57 -48z"/>
<path d="M28225 19541 c-92 -42 -242 -232 -330 -415 -56 -118 -297 -689 -390
-926 -185 -471 -341 -955 -430 -1332 -15 -65 -31 -118 -34 -118 -3 0 -26 53
-50 118 -149 401 -469 1058 -553 1136 -27 25 -36 28 -77 23 -34 -4 -52 -12
-73 -36 -15 -17 -28 -41 -28 -52 0 -30 105 -388 275 -939 188 -608 241 -788
318 -1066 36 -126 72 -244 81 -262 22 -43 73 -79 132 -93 42 -10 60 -9 108 5
67 20 137 82 154 137 6 19 21 108 32 199 109 874 347 1667 848 2825 149 346
183 461 184 632 0 99 -10 128 -55 157 -38 25 -70 27 -112 7z"/>
<path d="M26880 19262 c-698 -280 -1278 -689 -1773 -1252 -673 -765 -1072
-1769 -1044 -2620 11 -319 67 -563 188 -818 251 -529 716 -891 1320 -1026 375
-84 859 -74 1289 25 486 113 1272 476 1827 844 949 631 1460 1335 1568 2158
19 148 19 456 1 597 -116 872 -661 1516 -1441 1706 -120 29 -159 30 -205 5
-65 -35 -94 -100 -78 -176 13 -59 50 -90 183 -156 368 -184 639 -451 815 -804
114 -228 167 -423 190 -694 31 -365 -66 -798 -252 -1126 -279 -490 -820 -943
-1763 -1473 -492 -276 -875 -421 -1290 -489 -170 -27 -498 -25 -670 6 -341 60
-607 192 -821 405 -390 391 -542 1027 -418 1756 144 853 662 1701 1400 2296
303 244 699 477 1044 615 58 23 117 48 132 55 67 34 77 144 19 196 -17 15 -41
28 -54 28 -12 0 -87 -27 -167 -58z"/>
<path d="M60110 11480 l-12 -119 -52 -20 c-179 -67 -319 -93 -486 -93 -146 1
-246 22 -355 77 -112 56 -109 51 -90 130 8 38 14 70 12 71 -2 2 -689 -319
-1527 -714 -1169 -550 -1533 -726 -1567 -756 -129 -113 -139 -272 -23 -340 34
-20 48 -21 490 -20 658 2 1720 40 3092 109 336 18 383 27 487 96 78 52 125
107 168 196 53 111 60 170 39 369 -31 300 -146 1118 -160 1131 -1 2 -9 -51
-16 -117z"/>
<path d="M63967 11446 c-3 -8 -11 -51 -18 -96 -15 -97 -21 -103 -154 -147 -74
-25 -93 -27 -250 -28 -130 0 -188 4 -247 18 l-77 18 4 32 c11 86 13 167 6 167
-25 0 -202 -251 -286 -405 -128 -235 -234 -567 -281 -880 -30 -200 -9 -285 92
-373 78 -70 113 -76 379 -69 246 7 501 25 840 57 191 19 216 24 272 51 67 32
110 77 144 149 29 60 29 147 0 275 -113 498 -242 917 -358 1168 -35 74 -55 93
-66 63z"/>
</g>
</svg>
