<?xml version="1.0" encoding="utf-8"?>
<!-- Generator: Adobe Illustrator 25.0.0, SVG Export Plug-In . SVG Version: 6.00 Build 0)  -->
<svg version="1.1" id="Camada_1" xmlns="http://www.w3.org/2000/svg" xmlns:xlink="http://www.w3.org/1999/xlink" x="0px" y="0px"
	 viewBox="0 0 720 721" style="enable-background:new 0 0 720 721;" xml:space="preserve">
<style type="text/css">
	.st0{fill:#555454;}
	.st1{fill:#535353;}
	.st2{fill:#595757;}
	.st3{fill:#FDFDFD;}
	.st4{fill:#16549E;}
	.st5{fill:#5774A2;}
	.st6{fill:#89A9C7;}
	.st7{fill:#FFFFFF;}
	.st8{fill:#FBFBFA;}
	.st9{fill:#FAFCFA;}
	.st10{fill:#FAFBFB;}
	.st11{fill:#F8FAF8;}
	.st12{fill:#255398;}
	.st13{fill:#F9F9F8;}
	.st14{fill:#F8F8F7;}
	.st15{fill:#F7FAF8;}
	.st16{fill:#F8F9F7;}
	.st17{fill:#F8FAF7;}
	.st18{fill:#F7F9F7;}
	.st19{fill:#F7F9F9;}
	.st20{fill:#FBFAFA;}
	.st21{fill:#F6F7F6;}
	.st22{fill:#275595;}
	.st23{fill:#F2F5F3;}
	.st24{fill:#345B89;}
	.st25{fill:#3D6393;}
	.st26{fill:#E7EEF1;}
	.st27{fill:#E3ECF1;}
	.st28{fill:#4D6A8B;}
	.st29{fill:#57749A;}
	.st30{fill:#A0BBD9;}
	.st31{fill:#A0C6EA;}
	.st32{fill:#A5C5DE;}
	.st33{fill:#6B81A5;}
	.st34{fill:#90A7BF;}
	.st35{fill:#15A3D6;}
	.st36{fill:#1D8EC9;}
	.st37{fill:#139CD1;}
	.st38{fill:#4366AE;}
	.st39{fill:#FAB639;}
	.st40{fill:#FAB43C;}
	.st41{fill:#1A64AB;}
	.st42{fill:#F5A42B;}
	.st43{fill:#F8B63D;}
	.st44{fill:#369AB8;}
	.st45{fill:#3B9FBA;}
	.st46{fill:#247DBE;}
	.st47{fill:#4679A8;}
	.st48{fill:#329BBA;}
	.st49{fill:#3A9DBB;}
	.st50{fill:#239DB8;}
	.st51{fill:#3687AD;}
	.st52{fill:#3B9FBC;}
	.st53{fill:#3C9FB9;}
	.st54{fill:#F6E3B0;}
	.st55{fill:#309DB7;}
	.st56{fill:#3B9CBB;}
	.st57{fill:#4AA7C0;}
	.st58{fill:#2184C3;}
	.st59{fill:#E0AB52;}
	.st60{fill:#E2AD55;}
	.st61{fill:#CDE9F0;}
	.st62{fill:#F5E2B2;}
	.st63{fill:#F7F2D4;}
	.st64{fill:#FCF0C8;}
	.st65{fill:#F9E6BA;}
	.st66{fill:#B7E0EC;}
	.st67{fill:#F7EDC1;}
	.st68{fill:#F8ECC3;}
	.st69{fill:#F9EEBF;}
	.st70{fill:#5CB1C2;}
	.st71{fill:#F3DEB2;}
	.st72{fill:#3A9EBD;}
	.st73{fill:#EFD68D;}
	.st74{fill:#F0D498;}
	.st75{fill:#B7E0EE;}
	.st76{fill:#F4DCAA;}
	.st77{fill:#EECA82;}
	.st78{fill:#F0D590;}
	.st79{fill:#E7B45D;}
	.st80{fill:#F9EEC9;}
	.st81{fill:#F0CF88;}
	.st82{fill:#5AAAC4;}
	.st83{fill:#F2D59C;}
	.st84{fill:#F4E8B5;}
	.st85{fill:#FAEAC4;}
	.st86{fill:#C8E6E9;}
	.st87{fill:#FAECC1;}
	.st88{fill:#F9E7B1;}
	.st89{fill:#EFD391;}
	.st90{fill:#BBE1EB;}
	.st91{fill:#F8E6B6;}
	.st92{fill:#B3DEE5;}
	.st93{fill:#F5E4B0;}
	.st94{fill:#F4CF98;}
	.st95{fill:#F9E1B2;}
	.st96{fill:#F8E6B1;}
	.st97{fill:#EDD187;}
	.st98{fill:#AFDBE8;}
	.st99{fill:#FBE7AE;}
	.st100{fill:#F9E9B5;}
	.st101{fill:#C1E4EF;}
	.st102{fill:#B9E1EC;}
	.st103{fill:#9AD2E5;}
	.st104{fill:#F3DCA7;}
	.st105{fill:#F7DB97;}
	.st106{fill:#F6DCA4;}
	.st107{fill:#F9EDC3;}
	.st108{fill:#92C1DD;}
	.st109{fill:#275994;}
	.st110{fill:#1854A1;}
	.st111{fill:#1B549F;}
	.st112{fill:#2D5D9A;}
	.st113{fill:#3D669F;}
	.st114{fill:#295696;}
	.st115{fill:#235493;}
	.st116{fill:#33629E;}
	.st117{fill:#F8FAFA;}
	.st118{fill:#E9C266;}
	.st119{fill:#E4B45C;}
	.st120{fill:#E9C26C;}
	.st121{fill:#F4A42B;}
	.st122{fill:#285490;}
</style>
<path class="st0" d="M385.31,717.05c-63.09,3.97-123.17-7.44-180.06-34.95c-50.22-24.28-92.55-58.49-126.84-102.52
	C35.4,524.37,10.71,461.83,3.85,392.23c-0.52-5.29-0.8-10.61-1.19-15.92c-0.01-11.35-0.02-22.7-0.03-34.05
	c3-60.97,19.85-117.77,51.58-169.97c33.54-55.18,78.71-98.39,135.31-129.42c43.41-23.79,89.86-37.98,139.26-42.28
	c4.8-0.42,9.56-1.22,14.4-0.7c4.09,1.63,8.29-0.58,12.39,0.36c1.62,1.35,0.35,1.97-0.72,2.41c-1.89,0.77-3.94,0.5-5.92,0.54
	c-42.76,0.82-83.64,10.23-123.15,26.36c-33.1,13.5-63.11,32.05-90.73,54.55c-15.23,12.4-29.2,26.13-42.02,41.07
	c-15,17.48-28.35,36.08-39.84,56.01c-19.88,34.45-33.4,71.27-41,110.31c-5.43,27.9-7.32,56.08-5.96,84.37
	c1.42,29.64,6.57,58.76,15.35,87.21c9.08,29.42,21.67,57.24,37.94,83.33c10.83,17.37,23.18,33.65,36.81,49
	c13.52,15.23,28.26,29.12,44.14,41.74c21.95,17.43,45.61,32.18,71.12,43.96c23.51,10.86,47.8,19.27,73.07,24.82
	c18.37,4.03,36.9,6.73,55.74,7.63"/>
<path class="st0" d="M368.29,714.35c39.9-0.82,78.61-8.01,116.11-21.78c32.72-12.01,63.07-28.42,90.84-49.42
	c18.05-13.65,34.69-28.91,49.95-45.73c13.12-14.47,25.11-29.75,35.61-46.15c24.28-37.94,41.2-78.91,49.84-123.22
	c0.5-2.55-0.11-5.92,3.47-7.09c1.65,1.31,0.94,2.92,0.57,4.49c-6.43,36.69-18.91,71.27-36.72,103.89
	c-35.49,65.03-86.18,114.76-151.9,148.85c-44.08,22.86-91.07,35.73-140.74,38.85"/>
<path class="st1" d="M381.11-0.09c19.02,0.19,37.74,2.99,56.23,7.14c91.61,20.58,164.62,69.22,219.08,145.71
	c17.44,24.49,31.13,50.95,41.76,79.03c0.29,0.76,0.39,1.59,0.58,2.39c0.44,0.96-0.04,1.44-0.9,1.73c-2.41-0.19-2.62-2.29-3.25-3.91
	c-11.68-29.91-26.81-57.94-45.82-83.83c-16-21.79-34.08-41.63-54.72-59.2C571.8,70,547.84,53.61,521.75,40.44
	c-26.1-13.17-53.46-22.93-82.05-29.24c-21.65-4.78-43.47-7.94-65.69-8.06c-3.91-0.02-3.95-0.18-4.32-2.77
	C373.5,0.05,377.35,1.04,381.11-0.09z"/>
<path class="st2" d="M720.67,377.33c-1.15,16.15-2.29,32.3-6.01,48.13c-0.3-1.44,0.41-3.13-1.09-4.27c-2.12-2.4-0.99-5.09-0.54-7.62
	c4.52-25.37,5.14-51.02,3.76-76.59c-1.71-31.67-7.82-62.67-18.29-92.72c-0.95-2.74-2.68-5.48-1.29-8.62
	c0.52-0.48,1.03-0.97,1.55-1.45c6.77,16.27,11.03,33.28,14.78,50.43c3.94,18.01,6.04,36.27,7.12,54.65"/>
<path class="st3" d="M422.85,710.35c-68.25,11.59-134.58,4.45-198.52-22.17c-58.81-24.49-107.71-62.29-146.36-112.88
	c-41.26-54-65.37-115.1-71.73-182.79c-6.04-64.27,4.31-125.97,31.68-184.6c27.94-59.86,69.29-108.45,123.95-145.42
	C219.21,23.72,282.68,3.41,351.96,1.51c1.48-0.04,2.95-0.31,4.42-0.47c4.17,0,8.35,0.01,12.52,0.01
	c14.23,1.16,28.51,1.65,42.68,3.67c35.97,5.14,70.4,15.32,103.18,30.99c61.51,29.4,110.61,72.97,147.71,130.06
	c14.24,21.92,25.67,45.32,34.74,69.85c7.98,22.61,14.11,45.68,17.61,69.43c5.52,37.44,5.32,74.82-0.91,112.16
	c-0.22,1.3-0.23,2.64-0.34,3.96c-1.68,7.41-3.27,14.84-5.05,22.22c-10.4,43.17-28.57,82.83-53.9,119.26
	c-23.18,33.35-51.27,61.92-84.2,85.6C526.02,680.21,476.85,701.19,422.85,710.35"/>
<path class="st4" d="M269.03,686.9c-23.61-6.34-46.08-15.55-67.63-27.06c-33.68-17.98-63.5-40.9-89.58-68.86
	c-18.74-20.09-34.77-42.03-48.19-65.94c-1.65-2.12-2.07-4.98-4.12-6.86c-19.88-38.64-32.9-79.4-37.51-122.69
	c-5.64-52.94,0.23-104.6,18.58-154.62c21.07-57.41,55.11-105.88,102.05-145.13c50.79-42.46,109.11-68.12,174.72-76.64
	c68.81-8.93,134.51,2.08,196.74,32.89c44.78,22.17,82.88,52.87,114.03,91.86c45.57,57.03,70.55,122.17,74.78,195.12
	c3.13,53.91-6.17,105.73-27.66,155.21c-19.47,44.81-47.41,83.68-83.64,116.6c-43.21,39.27-93.15,65.84-149.85,79.51
	c-53.3,12.85-106.71,12.56-160.08,0.09c-0.48-0.11-0.91-0.41-1.36-0.62C276.61,688.55,272.83,687.69,269.03,686.9z"/>
<path class="st5" d="M269.03,686.9c4.06-0.26,7.81,0.76,11.27,2.86C276.31,689.73,272.63,688.48,269.03,686.9z"/>
<path class="st6" d="M59.5,518.18c2.81,1.42,3.42,4.17,4.12,6.86C61.03,523.49,60.51,520.69,59.5,518.18z"/>
<path class="st7" d="M221.23,579.01c-16.23-9.33-30.29-21.42-43.63-34.41c-13.25-12.9-24.82-27.21-35.01-42.63
	c-3.09-5.78-6.98-11.08-10.12-16.83c-17.77-31.6-28.26-65.52-31.68-101.56c-4.51-47.53,2.97-93.15,23.29-136.43
	c22.81-48.57,57.39-86.67,103.33-114.43c1.4-0.85,2.69-1.9,4.03-2.85c3.94-3.63,8.94-5.46,13.62-7.76
	c16.38-8.05,33.2-15,50.97-19.46c2.43-0.61,4.84-0.96,7.34-0.78l-0.04,0.01c11.1-3.96,22.78-4.93,34.32-6.41
	c12.95-1.66,26.03-0.62,39.05-0.66c11.57,2.52,23.55,1.9,35.12,4.54c4.14,0.94,8.02,2.75,12.2,3.53c3.64,0.98,7.28,1.96,10.91,2.94
	c8.91,2.3,17.54,5.42,25.99,9.04c16.56,7.39,32.74,15.5,47.68,25.86c56.21,38.98,93.09,91.46,108.47,158.19
	c14.9,64.65,6.32,126.61-25.39,184.94c-23.31,42.89-56.5,76.5-98.7,101.15c-2.27,1.44-4.89,2.23-7.02,3.92
	c-41.29,22.19-85.39,32.47-132.2,31.12c-33.72-0.98-66.11-8.07-97-21.74c-1.35-0.6-2.79-1.01-4.19-1.5
	c-5.19-1.91-10.06-4.46-14.81-7.26C232.02,586.38,226.83,582.37,221.23,579.01z"/>
<path class="st8" d="M308.7,648.3c-5.53,6.37-11.1,12.72-16.58,19.13c-2.65,3.11-5.62,5.02-9.97,4.14
	c-4.62-0.93-6.51-4.09-7.59-8.23c-2.12-8.12-4.35-16.21-6.91-25.72c-4.3,8.04-8.22,14.7-11.46,21.67c-1.84,3.97-3.9,4.86-8.08,3.77
	c-8.77-2.3-8.82-2.06-4.39-9.93c5.47-9.69,11.01-19.34,16.33-29.11c2.09-3.84,4.74-6.46,9.36-6.01c4.63,0.45,6.84,3.61,8.04,7.73
	c2.47,8.45,5.08,16.86,7.37,25.36c0.91,3.37,1.9,3.32,3.99,0.95c5.61-6.35,11.3-12.63,16.97-18.93c2.4-2.66,5-4.87,8.96-4.53
	c4.67,0.4,7.57,2.98,7.9,7.5c0.99,13.75,1.63,27.53,2.45,41.29c0.16,2.63-0.97,3.29-3.3,2.52c-0.32-0.1-0.64-0.19-0.96-0.26
	c-10.04-2.25-10.12-2.25-10.38-12.52c-0.16-6.24-0.03-12.48-0.03-18.73C309.85,648.38,309.27,648.34,308.7,648.3z"/>
<path class="st9" d="M393.04,668.78c-1.81,7.67-7.2,11.14-14.52,11.2c-14.79,0.12-29.59-0.28-44.39-0.43
	c-2.13-0.02-2.98-0.98-2.94-3.04c0.15-7.65,0.26-15.3,0.37-22.95c0.05-3.42,2.35-3.38,4.84-3.31c11.97,0.31,23.95,0.57,35.92,0.79
	c1.48,0.03,3.02-0.08,4.42-0.51c1.23-0.38,1.61-1.69,1.36-2.91c-0.52-2.58-2.66-2.7-4.66-2.76c-9.98-0.28-19.96-0.5-29.93-0.74
	c-2.33-0.06-4.66-0.01-6.98-0.16c-1.07-0.07-2.56,0.51-3.09-0.87c-0.5-1.32,0.97-1.93,1.6-2.84c0.75-1.07,1.48-2.16,2.22-3.24
	c1.98-5.44,6.24-7.38,11.49-6.46c9.4,1.65,18.86,0.53,28.29,1.16c14.01,0.93,19.7,9.48,13.74,22.1c-1.09,2.31-0.17,3.66,0.94,5.39
	C393.6,662.14,395.57,665.18,393.04,668.78z"/>
<path class="st10" d="M480.82,654.77c-1.65,0.89-2.91,2.2-3.95,3.75c-5.12,5.4-11.88,7.27-18.71,9.51c-6.9,2.27-13.71,3.3-20.9,3.16
	c-17.3-0.33-28.65-19.08-20.74-34.45c3.76-8.62,10.99-12.49,19.52-15.34c7.07-2.36,13.99-4.79,21.49-5.45
	c17.01-1.48,26.13,7.67,28.61,23.53C487.07,645.36,485.48,650.68,480.82,654.77z"/>
<path class="st11" d="M521.16,589c0.5,0,1-0.01,1.49-0.01c5.74,0,10.17,2.25,12.77,7.56c3.23,6.61,1.54,13.24-4.54,18.13
	c-6.15,4.95-13.58,7.57-20.42,11.26c-2.04,1.1-4.21,1.99-5.97,3.54c-1.03,0.91-1.97,2.03-0.92,3.42c0.89,1.18,2.14,0.61,3.17,0.1
	c5.79-2.86,11.7-5.52,17.21-8.92c2.26-1.39,4.73-2.4,7.03-3.72c0.43-0.26,0.87-0.48,1.32-0.7c2.76-1.14,5.32-2.74,8.13-3.75
	c3.26-1.16,5.06,0.16,4.28,3.44c-0.62,2.59-1.02,5.19-1.48,7.79c-0.51,2.85-2.03,4.89-4.57,6.16
	c-12.77,6.38-25.43,12.99-38.06,19.63c-3.64,1.91-6.02,0.88-7.68-2.53c-1.81-3.74-3.82-7.37-5.66-11.09
	c-2.44-4.96-1.43-9.38,1.99-13.38c3.18-3.73,7.33-6.2,11.64-8.43c5.46-2.83,11.12-5.28,16.36-8.51c1.31-0.81,3.44-1.82,2.2-3.72
	c-0.98-1.5-2.79-0.25-4.05,0.38c-8.78,4.37-17.68,8.51-26.23,13.31c-1.3,0.73-2.56,1.57-3.98,2.05c-2.46,0.83-3.73,0.27-3.72-2.67
	c0.03-8.66,2.52-15.47,11.72-18.45c3.58-1.16,6.88-3.29,10.22-5.15C508.95,591.64,514.67,589.17,521.16,589z"/>
<path class="st12" d="M521.16,589c-12.66,2.91-23.17,10.51-34.67,15.92c-3.94,1.85-2.71,6.07-3.47,9.29
	c-0.46,1.94-2.07,4.61-0.1,5.89c1.4,0.91,3.58-1.14,5.32-2.04c8.84-4.58,17.66-9.18,26.49-13.77c0.74-0.38,1.47-0.81,2.25-1.06
	c1.77-0.56,3.73-1.16,4.83,0.95c1.16,2.21,0.05,3.79-1.98,4.86c-6.47,3.39-12.96,6.75-19.39,10.21c-2.48,1.33-5.02,2.67-7.18,4.44
	c-6.71,5.5-7.55,10.17-3.56,17.88c1.6,3.09,3.35,6.12,4.82,9.27c1.1,2.34,2.42,2.7,4.67,1.52c13.07-6.85,26.18-13.65,39.31-20.4
	c2.11-1.09,3.33-2.51,3.47-4.98c0.21-3.57,2.05-6.96,1.43-11.03c-3.99,1.75-7.73,3.4-11.46,5.04c-0.72-1.01-1.3-2.31-3.05-1.5
	c1.07,0.53,2.44,0.32,3.13,1.46c-8.38,5.34-17.49,9.31-26.19,14.04c-1.48,0.8-2.82,1.1-3.76-0.69c-1.14-2.16-1.21-4.27,1.13-5.61
	c4.16-2.38,8.42-4.59,12.67-6.83c3.51-1.85,7.2-3.42,10.56-5.52c5.5-3.44,10.46-7.59,9.23-15.05c-1.18-7.21-5.81-11.21-13-12.29
	c1.32-0.04,2.69,0.13,3.96-0.14c6.32-1.33,9.41,3.97,11.35,7.55c2.06,3.8,2.77,9.66-1.41,13.78c-1.66,1.64-1.93,3.38-1.45,5.4
	c0.18,0.75,0.98,0.93,1.56,0.4c1.64-1.52,5.32-0.94,4.87-4.59c-0.38-3.02-0.07-5.57,3.52-6.34c0.78,0.74,0.83,1.76,1.06,2.72
	c1.48,6.2,4.72,7.42,10.06,3.75c6.71-4.61,12.78-10.05,19.29-14.93c2.34-1.75,4.38-2.94,7.65-1.43c3.69,1.71,9.4-3.58,8.5-7.56
	c-0.37-1.63-0.23-2.9,0.81-4.15c3.06-3.64,2.28-7.63,1.27-11.69c-2.15-0.02-3.15,1.5-4.45,2.43c-4.65,3.28-5.79,3.18-9.36-1.43
	c-3.15-4.07-6.16-8.24-9.41-12.24c-2.09-2.58-4.27-4.81-7.95-3.74c-3.71,1.08-5.66,3.7-6.43,7.48c-2.43,11.87-5.68,23.55-8.18,35.41
	c-0.41,1.94-0.22,4.46-2.85,5.32c-1-8.8,1.03-17.14,3.17-25.62c1.05-4.15,2.85-8.2,2.84-12.8c-0.01-3.57,1.43-7.33,2.95-10.67
	c1.95-4.29,6.88-3.82,10.4-4.24c2.82-0.33,6.23-0.17,9.3,0.53c-0.9,6,1.57,10.68,6.97,12.89c2.26,0.93,2.04,2.73,2.12,4.55
	c0.06,1.28-0.26,2.81,1.61,3.15c1.67,0.3,2.52-0.8,2.92-2.12c1.32-4.32,4.48-5.22,7.97-3.49c4.39,2.17,5.47,7.18,2.72,10.64
	c-2.39,3-1.31,6.43-1.13,9.55c0.31,5.24-2.09,8.06-6.62,9.61c-4.01,1.37-6.91,5.01-12.38,3.69c-2.61-0.63-6.85,3.25-8.92,6.38
	c-1.9,2.88-4.34,4.27-6.96,6.17c-4.71,3.42-11.17,2.12-15.14,6.83c-1.28,1.52-2,2.75-2.05,4.7c-0.25,9.22-7.39,15.84-17.03,16.34
	c-2.16,0.11-4.38,1.27-6.37,2.32c-6.33,3.34-12.58,6.83-18.84,10.29c-4.66,2.58-8.17,1.64-11.11-3.06
	c-0.82-1.32-0.61-3.72-2.84-3.56c-2.61,0.18-1.5,2.52-1.68,3.96c-0.49,3.91-4.96,1.08-6.12,3.74c5.05-7.98,5.09-16.18,1.36-24.71
	c-3.59-8.2-9.95-12.47-18.61-12.77c-13.81-0.48-26.59,3.31-38.33,10.63c-3.63,2.26-6.02,5.64-8.55,8.91
	c-0.22-0.03-0.44-0.05-0.66-0.08c2.81-9.8,9.06-14.98,19.18-15.91c0.66-0.06,1.53,0.09,1.93-0.27c10.55-9.4,23.4-4.4,35.23-5.62
	c2.19-0.23,4.41,0.45,4.58,3.38c0.09,1.54,0.61,2.67,2.39,2.36c1.85-0.32,1.62-1.9,1.57-3.17c-0.18-4.51,0.32-8.65,2.93-12.7
	c3.59-5.56,10.08-6.22,14.74-9.84c0.73-0.57,1.98-0.47,2.71-1.03C507.21,589.34,513.54,586.63,521.16,589z"/>
<path class="st11" d="M545.77,122.62c-6.97,5.59-14.03,11.08-20.87,16.82c-2.11,1.77-3.71,2.42-6.06,0.59
	c-2.28-1.78-5.28-2.64-4.06-6.82c2.41-8.28,4.37-16.7,6.46-25.08c0.38-1.51,1.46-3.01,0.08-5.14c-6.4,6.94-12.64,13.75-18.93,20.53
	c-3.04,3.27-8.1,2.7-10.61-1.07c-0.93-1.4,0.04-2.2,0.77-3c11.34-12.37,22.73-24.69,34.06-37.07c1.57-1.71,3.14-1.95,4.67-0.35
	c1.92,2.02,6.39,1.91,5.09,6.71c-2.79,10.26-5.28,20.6-7.85,30.92c-0.3,1.22-1.12,2.45-0.09,4.34c6.32-5.03,12.52-9.94,18.71-14.88
	c2.73-2.17,5.41-4.41,8.14-6.57c3.11-2.46,9.35-1.04,11.21,2.47c0.77,1.45-0.17,2.57-0.67,3.74c-6.23,14.68-12.48,29.35-18.78,44
	c-0.7,1.63-1.14,4.72-3.85,2.73c-2.26-1.65-7.3-1.67-5.27-6.78c2.5-6.29,5.02-12.57,7.55-18.84c0.72-1.78,1.52-3.53,2.28-5.29
	c0.79-0.77,0.9-1.71,0.11-2.41C547.19,121.55,546.45,122.27,545.77,122.62z"/>
<path class="st13" d="M234.44,657.71c-11.47-6-22.93-11.98-34.39-18c-1.61-0.85-3.16-1.81-4.74-2.72c-0.1-0.13-0.16-0.32-0.29-0.39
	c-1.68-0.86-4.49-0.96-4.54-3.05c-0.04-2.1,2.9-2.09,4.44-3.15c0.8-0.55,1.68-1,2.52-1.5c2.7-2.2,5.34-1.91,8.25-0.2
	c3.43,2.02,7.08,3.66,10.61,5.51c2.43,1.28,3.36,0.66,3-2.08c-0.71-5.44-1.38-10.88-1.99-16.32c-0.33-2.92-1.68-2.57-3.7-1.5
	c-8.67,4.58-17.49,8.9-26.06,13.65c-3.78,2.09-6.97,2.28-10.6-0.16c-2.84-1.91-6.03-3.3-9.67-5.24
	c15.83-8.49,30.97-16.61,46.12-24.73c5.92-3.16,11.25-2.79,15.09,1.12c2.91,2.98,2.75,7.12,3.21,10.72
	c1.12,8.84,1.75,17.81,3.47,26.49c1.22,6.15,0.83,12.44,2.61,18.48C238.38,656.71,238.04,659.4,234.44,657.71z"/>
<path class="st14" d="M662.04,216.01c0.09,15.9-13.24,29.39-28.99,29.36c-15.97-0.03-29.02-12.54-29.19-27.97
	c-0.18-16.3,12.92-29.48,29.32-29.49C649.22,187.89,661.96,200.3,662.04,216.01z"/>
<path class="st13" d="M185.44,588.83c-2.39,0.95-3.73-0.86-5.2-2.09c-5.47-4.59-10.79-9.36-16.34-13.85
	c-3.68-2.98-8-4.18-12.61-2.39c-7.84,3.05-9.54,12.41-2.98,18.83c6.64,6.5,13.94,12.31,20.93,18.45c1.73,1.52,3.73,2.78,4.9,4.88
	c-9.05,4.65-13.63,4.29-20.71-2.25c-5.48-5.06-11.79-9.21-16.48-15.15c-9.53-12.08-8.14-27.4,3.33-35.69
	c8.16-5.89,20.85-4.97,30.59,2.81c7.77,6.21,15.09,12.99,22.62,19.52c1.15,1.09,3.39,1.83,2.85,3.6c-0.46,1.5-2.67,1.74-4.23,1.82
	C189.76,587.43,187.68,588.41,185.44,588.83z"/>
<path class="st15" d="M265.45,88.34c-1.44-10.17-4.26-20.06-6.61-30.03c-0.83-3.51,0-4.74,3.4-5.28c4.08-0.64,8.06-1.88,12.13-2.61
	c15.18-2.71,22.97,1.21,30.87,15.35c4.99,10.18,4.49,20.05-1.6,29.64c-0.65,1.02-1.41,1.8-2.57,2.16l0.03-0.04
	c-1.36,2.41-3.35,4.12-5.94,5.04c-6.88,2.46-14.01,4.01-21.06,5.81c-3.62,0.93-4.65-1.52-5.62-4.06
	C266.51,99.19,266.93,93.58,265.45,88.34z"/>
<path class="st15" d="M574.76,179.87c-3.49,0.22-6.91-1.48-9.83-4.04c-4-3.5-7.72-7.31-11.7-10.83c-1.9-1.68-1.52-2.92,0.02-4.51
	c11.31-11.71,22.59-23.46,33.84-35.22c1.24-1.3,2.29-1.7,3.76-0.33c4.13,3.84,8.56,7.4,11.63,12.23c5.74,9.01,1.8,18.74-8.7,21
	c-2.5,0.54-3.2,1.05-2.8,3.75C592.46,171.98,585.35,179.99,574.76,179.87z"/>
<path class="st16" d="M155.34,178.24c-0.64-0.24-1.32-0.37-1.87-0.72c-6.44-4.03-11.06-1.83-14.67,4.16
	c-0.59,0.98-1.42,1.87-2.3,2.61c-5.2,4.38-7.19,9.01-2.26,15.09c1.87,2.31-1.7,9.11-4.82,9.89c-2.2,0.56-2.23-1.61-2.83-2.71
	c-6.02-11.08-11.93-22.22-17.87-33.35c-1.88-3.51-3.62-7.1-5.65-10.52c-1.69-2.84-2.35-5.12,0.52-7.86
	c2.59-2.48,4.26-4.73,8.71-3.02c15.48,5.95,31.15,11.43,46.84,16.83c3.83,1.32,4.63,2.63,1.47,5.44
	C158.94,175.55,158.08,178.08,155.34,178.24z"/>
<path class="st17" d="M450.73,103.52c-2.5,3.29-5.46,3.43-8.76,1.28c-4.54-1.66-4.54-1.66-0.93-6.08
	c10.4-12.42,20.9-24.77,31.14-37.33c2.35-2.88,4.38-3.88,7.99-2.42c3.43,1.39,5.81,2.43,5.88,7.09c0.26,16.09,1.21,32.17,1.71,48.26
	c0.05,1.58,1.58,5.05-1.36,4.65c-3-0.4-7.11-0.45-8.64-4.44c-0.11-0.3-0.07-0.66-0.11-0.99c-1.24-10.3-1.24-10.3-12.35-13.03
	c-0.47-0.13-1.04-0.1-1.42-0.35C458.29,96.59,454.19,98.79,450.73,103.52z"/>
<path class="st13" d="M229.42,119.51c-2.7-3.91-5.81-5.1-9.94-1.85c-1.81,1.42-3.86,2.69-6,3.52c-6.62,2.56-9.98,6.47-7.33,13.99
	c0.9,2.57-5.39,8.04-8.11,7.51c-1.3-0.25-1.27-1.32-1.42-2.29c-2.72-17.4-5.39-34.8-8.2-52.18c-0.54-3.32,1.44-4.54,3.82-5.49
	c2.34-0.93,4.12-3.72,7.44-0.95c13.4,11.16,27.04,22.02,40.65,32.93c1.51,1.21,2.45,2.21,0.98,3.99
	C236.44,123.71,234.34,123.86,229.42,119.51z"/>
<path class="st18" d="M108.78,216.62c0.51-1.85-2.58-5.34,2.6-6.47c6.68-1.46,6.73-1.7,7.7,5.25c2.02,14.33-7.86,30.02-21.35,33.9
	c-13.77,3.96-29.33-3.61-35.39-17.22c-7.01-15.71,3.87-37.27,20.72-41.2c2.24-0.52,3.65-0.16,3.77,2.34
	c0.12,2.69,3.76,5.96-1.37,7.83c-6.55,2.4-11.63,6.54-13.83,13.36c-2.47,7.65-0.88,14.56,5.18,19.97
	c5.94,5.31,13.07,7.06,20.36,3.63c7.02-3.3,11.18-9.23,11.6-17.3C108.83,219.55,108.78,218.38,108.78,216.62z"/>
<path class="st19" d="M396.07,93.82c-12.58-8.72-15.91-28.81-6.84-41.29c9.52-13.11,28.98-15.87,42.26-5.99
	c1.2,0.89,2.35,1.86,3.43,2.88c4.91,4.66,4.17,7.78-2.18,10.22c-2.3,0.88-2.98-0.86-4.05-1.93c-4.16-4.15-8.99-6.76-14.99-6.89
	c-7.97-0.17-13.91,3.31-17.23,10.44c-3.24,6.97-2.93,14.13,2.06,20.2c5.08,6.18,12.07,8.04,19.8,6.27c2.53-0.58,5.08-1.78,7.2-3.28
	c2.34-1.65,3.59-1.31,5.29,0.82c4.17,5.21,4.2,5.7-1.65,9.1c-2,1.16-4.14,2.09-6.21,3.12c-7.07,3.53-14.14,1.92-21.27,0.14
	C399.26,97.03,398.2,94.7,396.07,93.82z"/>
<path class="st20" d="M321.27,82.6c-0.8-11.93-1.41-23.89-2.5-35.79c-0.33-3.64,0.27-5.14,4.15-5.29c7.3-0.29,14.6-0.85,21.87-1.59
	c3.56-0.36,4.32,1.26,4.28,4.26c-0.04,2.68,1.29,5.89-3.41,6.01c-4.15,0.11-8.28,0.65-12.43,0.75c-2.98,0.07-3.92,1.51-3.26,4.1
	c0.59,2.34-1.1,6.29,3.85,5.85c3.97-0.35,8.01-0.27,11.92-0.95c4.65-0.82,4.54,1.96,4.93,5.13c0.4,3.22,0.03,5.02-3.83,5.02
	c-4.14,0.01-8.28,0.69-12.42,0.88c-2.34,0.1-3.38,1.02-3.08,3.36c0.02,0.16,0.01,0.33,0.01,0.5c0.09,10.93,0.09,10.93,10.9,10.1
	c9.65-0.74,9.65-0.74,10.83,8.78c0.18,0.77-0.13,1.37-0.89,1.42c-8.77,0.51-17.53,1.09-26.23,2.43c-2.93,0.45-4.19-1.16-4.27-4.08
	C321.6,89.86,322.26,86.19,321.27,82.6z"/>
<path class="st21" d="M156.82,120.39c-1.96,0.05-3.64-0.1-5.12,0.9c-1.71,1.16-3.25,2.46-2.9,4.81c0.34,2.28,2.18,2.85,4.04,2.99
	c5.13,0.37,10.27,0.58,15.41,0.87c5.01,0.29,9.98,0.73,14.07,4.14c5.1,4.25,7.1,10.5,5.27,16.56c-1.94,6.43-9.03,12.3-15.74,12.93
	c-1.65,0.15-3.34,0.18-4.98-0.01c-6.9-0.78-7.91-2.72-5.12-8.98c1.04-2.33,2.37-2.98,4.67-2.02c2.46,1.03,4.88,0.71,7.24-0.4
	c2.67-1.26,4.17-3.27,3.96-6.29c-0.22-3.1-2.45-4.04-5.06-4.59c-4.27-0.9-8.62-0.48-12.92-0.8c-3.13-0.23-6.3-0.47-9.37-1.12
	c-6.82-1.45-11.04-5.67-11.72-11.27c-0.86-7.15,2.46-13.12,8.93-16.28c2.45-1.19,5.04-1.73,7.7-1.86c7.18-0.35,7.9,0.8,6.51,7.75
	C160.97,121.36,158.75,120.52,156.82,120.39z"/>
<path class="st22" d="M416.03,636.75c0.22,0.04,0.44,0.07,0.66,0.08c-2.04,6.76-1.87,13.4,0.94,19.95
	c3.54,8.26,9.56,12.89,18.69,13.29c14.81,0.64,28.07-4.07,40.55-11.55c-3.5,7.29-10.43,8.91-17.39,10.17
	c-2.17,0.39-4.2,0.27-5.5,2.48c-0.6,1.01-1.71,1.57-2.96,1.57c-9.33,0.03-18.81,1.17-27.36-4.19c-1.83-1.15-2.4-3.67-4.88-3.99
	c-1.08-0.14-2.18-1.22-3.18-0.04c-0.83,0.98-0.55,2.21-0.2,3.32c0.14,0.44,0.66,0.75,0.87,1.18c2.27,4.72,0.75,7.86-3.96,10
	c-2.82,1.29-5.52,1.86-8.55,1.78c-5.77-0.15-6.6-0.87-6.65-6.67c-0.03-2.85,0.5-6.01-4.07-5.33c-0.31-4.32-0.39-8.7-4.78-11.37
	c-1.63-0.99-0.78-1.94,0.23-3.15c7.01-8.43,4.09-17.52-6.51-20.65c-5.19-1.54-10.55-1.11-15.84-1.36c-4.98-0.23-10,0.1-14.95-0.37
	c-5.61-0.54-10.49,0.15-13.94,5.13c-0.11-6.36,6.86-10.88,13.56-7.77c5.43,2.52,10.79,1.68,16,1.28c3.31-0.26,6.25-1.32,9.64,0.16
	c1.82,0.79,4.38,0.58,6.39,0.04c2.36-0.64,4.05-1.35,5.07,1.78c0.27,0.82,1.33,2.47,3.09,1.83c1.4-0.51,2.1-1.44,2.12-2.99
	c0.03-3.7,2.16-4.7,5.57-4.54c2.5,0.11,5.07,0.71,7.28-1.88c1.55-1.81,4.87,0.96,5.07,4.49c0.19,3.46,0.04,6.94,0.04,10.51
	C413.64,639.91,414.62,638.01,416.03,636.75z"/>
<path class="st23" d="M588.92,200.28c-2.54-1.56-4.23-3.86-5.78-6.12c-1.34-1.94,0.79-2.99,1.93-3.98
	c11.77-10.28,23.63-20.45,35.38-30.75c2.15-1.89,4.03-2.66,5.54,0.23c1.19,2.28,6.1,3.78,1.69,7.56
	c-12.24,10.49-24.37,21.11-36.56,31.66C590.51,199.4,589.76,199.75,588.92,200.28z"/>
<path class="st24" d="M229.42,119.51c4.28,4.45,8,0.5,11.88-0.81c0.1,2.16,0.46,3.59,3.25,2.27c6.36-3.01,12.72-6.04,19.27-8.59
	c4.18-1.63,6.28-3.15,3.61-7.95c-2.75-4.94-1.63-10.67-1.98-16.09c2.45,5.12,2.61,10.84,4.2,16.19c0.61,2.06,1.25,3.22,3.71,2.57
	c9.49-2.52,19.53-3.41,27.76-9.57c0.1,1.78,0.37,3.48,2.25,4.34c-15.29,4.29-30.57,8.65-45.1,15.13
	c-9.05,4.04-17.89,8.56-26.82,12.87c0.15-3.86,3.1-4.13,6.39-4.49C235.07,122.85,229.88,124.43,229.42,119.51z"/>
<path class="st25" d="M234.44,657.71c2.27,0.5,2.91-0.43,2.61-2.64c-2.17-16.1-4.05-32.24-6.48-48.3
	c-1.35-8.93-6.24-11.2-17.18-8.93c2.23-2.13,5.14-4.06,1.61-7.53c-0.34-0.33,0.79-1.23,1.71-1.22c2.82,1.64,5.4,2.44,8.64,0.3
	c3.26-2.15,4.51-1.25,5.19,2.69c0.11,0.65,0.07,1.31,0.2,1.96c0.27,1.31,0.6,3.01,2.07,2.98c1.93-0.05,1.11-1.97,1.26-3.12
	c0.12-0.97-0.1-1.97-0.07-2.95c0.09-3.57,1.65-3.98,4.31-1.97c4.75,2.61,9.5,5.22,14.25,7.83c-5.92-0.13-10.02-4.89-16.08-6.26
	c0,2.04-0.35,4.02,0.08,5.81c0.66,2.78,0.54,4.55-2.92,4.61c-2.93,0.05-2.42,2.36-2.12,4.03c1.79,10.26,1.84,20.87,4.36,30.84
	c1.54,6.09,0.1,12.38,2.9,18.26C240.19,657.07,237.58,658.91,234.44,657.71z"/>
<path class="st26" d="M468.73,50.67c11.68-8.46,20.07-10.79,26.91,9.01c-4.36-2.1-9.36-0.98-11.14-6.43
	c-0.5-1.54-1.7-2.27-3.07-1.28C476.77,55.35,473.12,51.85,468.73,50.67z"/>
<path class="st27" d="M238.31,588.97c-2.18-0.74-3.98-1.06-3.22,2.35c0.28,1.27,0.36,2.65,0.18,3.93c-0.2,1.42,1.31,3.96-1.15,3.99
	c-1.8,0.02-4.3-0.91-4.64-3.64c-0.06-0.49-0.04-0.99-0.07-1.48c-0.41-5.55-0.4-5.54-5.02-2.6c-3.5,2.23-6.04,1.27-7.68-2.44
	c1.82-1.05,3.6-2.18,5.47-3.14c3.28-1.69,5.35-3.35,0.38-5.58c-0.54-0.24-0.89-0.89-1.33-1.35c3.81-1.38,4.84,2.63,7.29,3.89
	C231.91,584.65,235.89,585.61,238.31,588.97z"/>
<path class="st24" d="M321.27,82.6c1.32,3.48,0.59,7.17,1.15,10.73c0.23,1.43,0.15,3.34,2.3,3.12c9.45-0.96,19.05-0.39,28.37-2.73
	c9.22,0.01,18.44-0.01,27.66,0.06c1.64,0.01,3.83-0.81,4.38,1.89c-2.75,1.02-5.55,0.56-8.33,0.22c-24.74-1.08-49.2,1.35-73.48,5.98
	c4-3.15,8.52-4.68,13.62-4.14c3.21,0.34,4.51-0.86,4.31-4.19C321.03,89.92,321.24,86.26,321.27,82.6z"/>
<path class="st28" d="M376.8,95.9c2.78-0.07,5.56-0.15,8.33-0.22c4.06,0.29,8.12,0.58,12.57,0.9c-0.68-1.16-1.16-1.96-1.63-2.76
	c8.56,4.13,17.46,5.86,26.89,3.68c-0.98,2.11-3.74,0.71-4.92,2.58c1.47,1.95,4.56,0.66,5.96,2.8
	C408.36,99.87,392.63,97.55,376.8,95.9z"/>
<path class="st24" d="M301.07,97.57c7.97-9.74,7.79-20.54,4.17-31.8c6.03,6.15,4.58,13.72,3.16,20.8c-0.58,2.88-1.17,6.18-3.19,9.04
	C303.84,97.55,302.9,97.84,301.07,97.57z"/>
<path class="st29" d="M460.9,114.86c-8.66-3.01-17.33-6.03-25.99-9.04C444.26,106.88,452.79,110.27,460.9,114.86z"/>
<path class="st30" d="M132.46,485.14c4.05,5.2,8.03,10.45,10.12,16.83C138.45,496.81,134.68,491.44,132.46,485.14z"/>
<path class="st29" d="M450.73,103.52c4.74-7.41,5.95-7.66,14.58-3c-0.16,0.03-0.34,0.12-0.48,0.07
	C459.52,98.66,454.69,99,450.73,103.52z"/>
<path class="st31" d="M185.44,588.83c2.94-2.42,6.98-1.42,10.28-3.39c-0.73-1.15-1.48-2.34-2.24-3.54c1.3,0.04,2.03,1,2.91,1.73
	c1.99,1.65,2.22,2.96-0.73,3.48C192.26,587.72,188.99,589.12,185.44,588.83z"/>
<path class="st32" d="M197.44,628.92c-1.36,2.53-4.52,2.49-6.35,4.44c0.64,2.08,3.52,1.62,4.22,3.64c-2.5-0.3-5.67-1.06-6.04-3.28
	c-0.41-2.47,3.27-2.43,5.02-3.69C195.15,629.4,196.38,629.27,197.44,628.92z"/>
<path class="st29" d="M441.03,98.72c-1.48,2.3-2.59,4.55,0.93,6.08c-1.78-0.07-4.29,0.41-4.43-1.95
	C437.43,101.13,438.62,99.04,441.03,98.72z"/>
<path class="st33" d="M545.77,122.62c1.06-1.04,2.16-3.39,3.51-2.22c1.39,1.2,0.06,3.12-1.51,4.19
	C547.8,123.21,546.9,122.8,545.77,122.62z"/>
<path class="st34" d="M485.95,588.93c1.78-2.31,4.23-3.42,7.02-3.92C491.13,587.21,488.72,588.38,485.95,588.93z"/>
<path class="st35" d="M282.78,360.36c5.43,2.32,11.15,0.95,16.72,1.05c4.75,0.09,6.31,1.53,6.06,6.41
	c-0.47,9.17-0.17,9.05-9.35,9.24c-10,0.21-7.93-1.48-11.93,8.87c-1.25,3.23-0.1,4.32,2.98,4.33c4.99,0.02,10,0.3,14.97-0.03
	c4.02-0.27,5.86,1.15,7.08,5.03c2.77,8.84,5.7,17.69,11.83,24.97c6.21,8.86,13.51,16.6,22.81,22.3c0.83,0.51,1.49,1.31,2.11,2.09
	c1.33,3.53,4.81,3.1,7.55,4.06c0.49,0.28,0.94,0.6,1.38,0.94c1.28,0.73,3.06,1.27,2.29,3.22c-0.53,1.35-2.07,1.81-3.39,1.6
	c-3.83-0.6-7.61-0.04-11.42,0.12c-42.83,1.9-85.69,1.61-128.54,1.48c-4.76-0.01-9.44-1.47-14.15-2.24
	c-2.75-0.45-4.69-2.39-6.22-4.67c-0.21-0.23-0.27-0.49-0.19-0.79c-2.08-9.81-0.65-19.25,2.39-28.7c2.62-8.12,4.15-16.56,7.87-24.39
	c1.34-2.82,0.59-6.54,0.82-9.85c0.02-1.46-0.09-2.95,0.97-4.17c1.46-5.34,2.91-10.67,4.37-16.01c3.42-3.66,2.63-8.69,4.06-13
	c1.23-3.71,2.26-7.56,3.44-11.32c1.33-4.25,0.3-6.04-4.12-6.06c-5.32-0.03-10.6-0.71-15.92-0.53c-2,0.07-3.97-0.09-5.83-0.95
	l0.01,0.01c-1.62-2.09-3.09-4.28-4.88-6.26c-3.55-3.9-3.17-9.93,0.27-14c4.14-4.88,9.99-7.53,14.64-11.72l-0.01,0
	c11.12-4.95,22.29-9.76,33.09-15.4c6.83-3.57,13.75-6.97,20.78-10.14c3.67-1.66,6.96-3.84,10.03-6.39
	c10.22-5.96,20.45-11.91,31.58-16.1c6.75-2.95,13.18-6.56,19.82-9.76c16.21-7.81,31.76-17.06,48.33-24
	c7.95-3.33,17.21-3.3,25.12,2.54c3.04,2.25,6.25,4.3,9.61,6.08c5.88,3.5,10.63,8.4,15.79,12.78c3.48,4.67,8.7,7.72,11.93,12.63
	c5.43,6.15,11.31,11.78,18.61,15.73l-0.03-0.03c6.15,5.56,12.18,11.26,19.04,15.97l-0.05-0.02c3.45,4.03,7.45,7.73,11.89,10.27
	c5.79,3.32,9.75,8.13,13.82,12.99c2.06,2.46,1.89,5.31-0.11,7.78c-3.64,4.51-8.09,7.41-14.04,8.61c-4.92,1-9.75,1.42-14.69,1.37
	c-2.34-0.02-3.48,0.94-4.18,3.27c-2.06,6.91-3.81,13.91-5.67,20.88c-1.13,4.27-2.76,8.45-3.03,12.93c-0.12,0.61-0.25,1.22-0.37,1.83
	c-1.53,1.16-2.18,2.68-2.49,4.61c-1.52,9.58-5.19,18.59-7.45,27.98c-0.77,3.18-2.16,6.25-2.5,9.47c-0.5,4.77-2.84,8.33-6.07,11.59
	c-4.08,4.12-8.4,8-12.06,12.52c-3.36,2.6-7.14,4.4-11.19,5.64c-5.04,2.28-10.63,2.38-15.83,4.01c-7.15,2.02-14.35,1.64-21.38-0.28
	c-5.99-1.63-11.7-4.21-17.36-6.76c-4.4-1.99-7.7-5.58-11.1-8.94c-7.96-8.15-14.32-17.35-18.36-28.07c-2.3-6.1-1.85-6.8,4.74-6.81
	c25.44-0.01,50.89,0.01,76.33-0.03c4.36-0.01,9.74-7.06,8.8-11.37c-0.54-2.46-2.63-1.67-4.08-1.68
	c-10.31-0.11-20.62-0.07-30.93-0.09c-17.63-0.02-35.26-0.02-52.89-0.07c-6.47-0.02-6.63-0.24-6.64-6.79c0-1.16,0.12-2.34,0-3.49
	c-0.39-3.88,1.18-5.18,5.16-5.14c18.46,0.15,36.92,0,55.38-0.03c10.64-0.02,21.29,0,31.93,0c8.87,0,9.14-0.16,11.83-8.54
	c0.39-1.23,0.31-2.61,0.45-3.91c-2.06-1.3-4.13-1.4-6.61-1.04c-5.1,0.74-10.29,0.26-15.45,0.28c-12.97,0.04-25.95,0.02-38.92,0.01
	c-4.31-0.01-8.58,0.18-12.83-1.17c-2.67-0.85-5.7-0.78-8.39,0.09c-3.59,1.16-7.2,1.12-10.85,1.08c-6.57-0.06-7.73-1.36-5.78-7.52
	c4.8-15.24,13.96-26.89,27.69-35.48c14.01-8.77,29.03-8.06,44.24-6.59c3.31,0.32,6.74,1.56,10.04,2.66
	c8.97,2.73,16.02,8.38,22.44,14.93c5.07,5.17,5.17,5.04,8.03-1.85c2.05-4.93,1.12-8.3-3.25-11.42
	c-14.86-10.63-30.55-19.01-49.15-20.98c-9.33-0.99-18.12,0.95-26.92,3.4c-12.13,4.29-22.46,11.14-30.35,21.43
	c-0.41,0.53-0.89,0.96-1.46,1.3c-9.43,7.74-13.19,18.8-16.69,29.76c-2.44,7.65-2.85,8.65-10.71,8.68c-0.99,0-1.99,0-2.98,0
	C286.39,346.65,282.42,351.08,282.78,360.36z"/>
<path class="st36" d="M496.1,499.12c-5.28,5.18-11.32,9.4-17.18,13.86c-1.92,1.46-4.24,2.3-6.01,3.99
	c-11.39,7.12-23.3,13.21-35.68,18.41c-1.67,0.7-3.24,1.72-5.15,1.67c-9.14,2.06-17.77,5.86-26.86,8.05
	c-7.19,1.73-14.17,4.42-21.65,4.92c-4.13,0.28-8.01,1.8-12.05,2.6c-8.22,1.61-16.42,2.07-24.72,1.62c-2.08-0.54-4.2-0.8-6.36-0.84
	c-1.26-0.02-2.28-0.67-2.53-1.97c-0.28-1.43,0.78-2.09,1.89-2.53c2.61-1.04,5.33-1.89,7.53-3.72c1.16-0.97,2.65-2.45,0.43-3.42
	c-4.25-1.86-3.99-5.09-3.5-8.71c0.67-4.93-0.1-5.9-4.85-6.63c-8.67-1.34-11.67-9.24-6.17-16.42c1.35-1.76,2.81-3.23-0.43-4.38
	c-1.82-0.64-4.28-0.67-4.23-3.36c0.05-2.88,1.54-4.99,4.33-6.05c5.2-0.26,10.38-0.91,15.59-0.57c12.32-0.05,24.19-3.4,36.27-5.18
	c4.76-0.7,10.04,0.08,14.13-3.51c11.93-3.24,24.06-5.71,35.82-9.64c10.33-3.46,20.46-7.39,30.22-12.25
	c2.41-1.78,5.29-2.64,7.89-4.05l0.03-0.03c2.7-1.96,5.57-3.67,8.17-5.77c1.49-1.77,2.57-3.95,4.83-4.99
	c0.93,1.03,0.33,2.73,1.61,3.61c0.07,1.51-0.8,2.59-1.88,3.35c-11.4,7.97-22.48,16.58-36.62,19.36c-0.98,0.19-1.95,0.43-2.83,0.92
	c-0.73,0.41-1.47,0.89-1.5,1.83c-0.05,1.22,0.87,1.69,1.83,2.05c0.62,0.24,1.29,0.33,1.95,0.38c2.74,0.2,5.32,0.42,5.8,4.07
	c0.6,4.56-0.63,8.05-4.21,9.79c-2.68,1.31-5.54,2.24-8.51,2.76c-1.36,0.24-2.64,0.62-2.86,2.28c-0.24,1.81,0.78,2.82,2.35,3.33
	c2.98,0.97,4.68,3,5.29,6.04c0.28,1.43,1.13,2.42,2.55,2.77c2.53,0.63,4.06,2.11,4.44,4.75c0.42,2.95,2.16,2.63,4.38,1.95
	c8.62-2.64,15.29-8.5,22.67-13.24c11.53-7.42,20.52-17.62,30.34-26.92c2.9-2.75,4.9-6.29,6.9-9.72
	c5.97-10.24,14.22-19.27,16.56-31.47c0.52-2.72,2.28-5.15,3.68-7.61c0.68-1.19,1.47-2.34,3.13-1.3
	c-4.49,18.54-13.27,34.91-25.21,49.67c-1.66,2.05-3.16,4.22-4.74,6.33c-2.55,2.74-4.92,5.67-7.78,8.1
	C501.39,495.93,499.2,498.07,496.1,499.12z"/>
<path class="st37" d="M540.91,429.17c-3.57,1.81-4.69,5.88-5.31,8.77c-2.24,10.35-8,18.63-13.62,27.13
	c-3.22,4.87-5.39,10.85-9.62,14.49c-2.92,2.52-4.6,6.5-8.57,7.9c-2.4,0.85-2.39,3.79-4.04,5.34c-5.98,5.65-12.75,10.41-19.32,15.24
	c-7.31,5.38-14.87,10.89-24.01,13.39c-3.54,0.96-4.65,0.07-4.42-3.35c0.18-2.63-0.92-4.23-3.72-4.03c-2.79,0.19-3.29-1.33-3.31-3.69
	c-0.02-3.1-1.76-5.14-4.86-5.23c-3.83-0.12-2.9-2.74-3.07-4.93c-0.23-2.89,1.52-3.26,3.79-3.16c3.27,0.14,6.12-1.53,8.95-2.66
	c3.98-1.59,3.53-5.65,3.14-9.13c-0.39-3.45-3.29-1.96-5.16-2.13c-2.77-0.25-5.32-1.2-5.37-4.08c-0.05-2.7,3.15-3.42,5.05-3.71
	c12.12-1.87,21.97-8.27,31.49-15.3c2.81-2.08,7.01-2.69,8.02-6.9c0.18-4.19,3.52-6.3,6.2-8.47c7.98-6.44,13.96-14.24,19.4-22.95
	c6.1-9.77,9.28-20.14,10.55-31.23c1.19-10.42,0.2-20.65-2.37-31.01c-3.34-13.46-9.43-25.39-16.42-37.08c-1-1.68-2.78-3.5-1.19-5.84
	c5.74,2.99,9.34,8.28,13.39,12.95c20.11,23.17,30.16,50.01,28.18,80.87C544.28,416.74,543.59,423.2,540.91,429.17z"/>
<path class="st38" d="M225.11,549.08c-11.37-5.18-21.45-12.52-31.88-19.25c-13.94-9-27.33-18.81-40.67-28.68
	c-2.42-1.79-4.61-3.82-6.43-6.2c-5.08-6.63-3.1-13.82,4.68-16.89c9.16-3.62,18.93-3.15,28.48-3.98c27.29-2.37,54.59-4.52,81.97-5.6
	c7.11-0.28,14.24-0.98,21.31,0.47c-1.63,2-3.94,1.34-6.03,1.53c-3.76,0.35-7.65-0.81-11.3,0.9c-0.48,0.3-0.99,0.52-1.53,0.68
	c-4.78,0.87-9.62,0.6-14.41,0.39c-9.72-0.42-19.12,1.39-28.47,3.55c-2.92,0.67-5.97-0.03-8.74,0.99c3.73,6.79,3.52,14.35,4.58,21.57
	c0.58,3.92,0.44,7.91,2.18,11.64c1.08,2.31,0.96,4.87,0.97,7.36c0.01,2.37,0.35,4.64,1.9,6.56c3.06,3.8,3.79,8.21,2.49,12.71
	c-1.29,4.45,0.54,6.36,4.43,7.82c3.01,1.13,7.2,1.44,6.92,6.35C231.75,552.12,228.58,549.77,225.11,549.08z"/>
<path class="st39" d="M424.98,137.58c1.31-1.34,2.63-2.68,3.94-4.02c6.58-3.75,13.32-4.35,20.26-1.07c1.25,0.41,2.5,0.83,3.75,1.24
	c1.97,1.38,4.31,2.19,6.01,3.98c0.65,0.67,1.3,1.34,1.95,2.01c5.69,7.82,2.74,15.35-1.26,22.46c-3.05,5.42-6.68,10.55-10.57,15.45
	l-0.01,0.02c-2.25,3.37-4.22,6.94-6.95,9.97c-0.41,0.62-0.82,1.23-1.22,1.85c-2.54,2.26-3.35,5.78-5.9,8.03
	c-0.56,0.76-1.12,1.52-1.67,2.28c-4.45,4.45-7.67,9.85-11.41,14.84c-0.95,2.31-2.98,3.51-4.92,4.81l0.03,0.02
	c-4.28,2.03-8.94,1.58-13.12,0.6c-3.92-0.92-4.68-5.28-5.01-8.94c-0.3-3.34,0.67-6.56,2.24-9.55l0.03,0.02
	c1.78-5.42,4.37-10.58,5.23-16.3c3.23-7.71,5.55-15.71,7.72-23.76c0.44-1.64,0.99-3.15,2.07-4.44c3.08-4,5.58-8.25,5.85-13.47
	C422.48,141.35,423.92,139.56,424.98,137.58z"/>
<path class="st40" d="M289.38,197.42c-0.04-0.94-0.08-1.89-0.12-2.83c-1.16-9.7-4.79-18.97-5.11-28.82
	c-0.04-1.18-0.97-2.07-1.52-3.08c-0.51-1.7-0.27-3.44-0.34-5.17c0.01-3.72-0.01-7.45,0.01-11.17c-0.19-3.28,1.66-4.99,4.42-6.33
	c1.73-0.84,3.16-2.3,4.94-3.17c7.7-0.68,15.25-0.62,21.63,4.74l0.03-0.01c3.38,2.57,4.75,6.17,4.86,10.22
	c0.16,5.63,1.37,11.69-0.28,16.79c-2.38,7.36-0.06,15.1-3.18,22.16c-0.74,1.68-0.69,3.61-0.46,5.4c0.8,6.2-1.26,11.67-4.06,16.98
	c-0.66,1.34-1.73,2.28-2.93,3.1c-1.26,0.37-2.5,0.83-3.76,1.16c-5.78,1.5-9.95-1.34-11.22-7.18
	C291.36,205.94,290.47,201.66,289.38,197.42z"/>
<path class="st41" d="M503.11,316.56c3.03,8.59,9.11,15.54,12.63,23.92c7.73,18.44,11.8,37.22,7.54,57.2
	c-1.82,8.52-5.21,16.19-9.23,24.02c-5.95,11.57-15.25,19.48-24.17,28.08c-1.07,1.03-1.95,2.24-2.92,3.36
	c-2.67-0.13-0.62-2-1.09-2.94c26.14-42.12,24.46-86.1,8.7-131c-0.22-0.62-0.4-1.26-0.61-1.88c-0.55-0.82-1.09-1.64-1.37-2.58
	c-0.52-1.72-1.31-3.78,0.27-5.05c1.68-1.35,2.62,1.39,4.2,1.49C499.81,312.14,501.05,314.82,503.11,316.56z"/>
<path class="st42" d="M520.04,219.67c0.24-0.09,0.49-0.19,0.73-0.3c5.17-4.08,10.88-7.24,16.9-9.89c5.05-1.49,10.08-1.5,15.1,0.13
	l0,0c2.45,1.44,3.54,3.95,4.94,6.23c3.33,8.77,1.11,16.2-10.88,21.64c-0.6,0.03-1.21,0.06-1.81,0.1
	c-5.68,2.04-10.54,5.72-16.06,8.07c-0.72,0.56-1.44,1.12-2.17,1.68c-5.06,2.9-10.67,4.52-15.97,6.89c-1.04,0.23-2.1,0.39-3.15,0.55
	c-3.25,0.18-6.42,0.03-9.65,1.41c-3.29,1.4-7.02,1.1-9.24-2.41c-2.27-3.59-0.6-6.56,2.12-9.19c1.65-1.6,3.33-3.19,4.65-5.1
	c0.4-0.7,0.89-1.32,1.53-1.82l-0.02-0.04c2.74-1.66,4.55-4.63,7.82-5.55c2.88-1.94,5.37-4.35,8.07-6.52l-0.04-0.08
	C514.94,223.13,517.57,221.49,520.04,219.67z"/>
<path class="st43" d="M211.27,221.64c-1.23-0.11-1.74-0.94-2-2.02c-2.14-1.85-4.34-3.65-5.82-6.12c-0.19-1.12-0.83-1.8-1.96-2.01
	c-2.8-3.72-6.59-6.6-8.93-10.7c-1.5-10.32,5.8-16.59,16.08-13.79c1.44,0.39,2.81,1.01,4.16,1.65c2.44,1.53,2.91,4.6,4.98,6.43
	c3.33,3.68,5.32,8.16,7.56,12.51l0.06-0.04c2.53,4.43,4.87,8.95,5.97,13.99l-0.02,0.02c1.14,1.16,0.94,2.69,1.16,4.11
	c0.17,0.8,0.23,1.62,0.23,2.44c-0.04,6.31-2.53,7.97-8.34,5.51c-0.75-0.32-1.48-0.69-2.22-1.01
	C218.11,229.37,214.65,225.54,211.27,221.64z"/>
<path class="st44" d="M406.12,301.36c-12.01-2.52-24.19-1.95-36.34-2.01c-2.73-0.01-5.16,0.39-7.4,2.06
	c-6.87,5.11-15.97,6.82-21.68,13.59c-7.2,8.55-13.46,17.78-16.59,28.68c-0.63,2.19,1.36,3.69,3.59,3.51
	c3.85-0.31,7.58,0.33,11.61-1.26c3.81-1.5,8.79-1.71,12.96,0.55c1.61,0.88,3.19,0.76,4.81,0.76c18.43,0.03,36.85,0.02,55.28,0
	c1.31,0,2.99,0.24,3.86-0.44c3.6-2.83,5.24-0.68,6.76,2.25c-32.34-0.01-64.68-0.02-97.02-0.05c-4.89,0-5.77-1.05-4.25-5.54
	c1.63-4.81,3.59-9.5,5.41-14.25c2.95-3.78,4.24-8.7,8.17-11.8c8.56-9.04,18.12-16.53,30.53-19.49c12.07-2.88,24.05-2.14,35.92,1.22
	C403.34,299.6,404.93,300.09,406.12,301.36z"/>
<path class="st45" d="M193.54,449.14c7.2,4.3,15.21,5.81,23.36,5.87c28.12,0.21,56.31,1.26,84.33-0.37
	c15.84-0.92,31.64-0.82,47.45-1.59c2.63-0.13,5.51,2.2,8.01-0.57c-0.28-2.08-3.87-0.63-3.53-3.31c3.03-0.81,5.35,1.27,8.01,1.98
	c2.93,1.03,5.86,2.05,8.8,3.08c0.02,0.23,0.03,0.47,0.05,0.7c-1.01,0.07-2.03,0.17-3.04,0.2c-48.88,1.4-97.76,2.53-146.66,1.88
	c-6.83-0.09-13.58-0.66-20.34-1.65C196.1,454.8,193.89,453.07,193.54,449.14z"/>
<path class="st46" d="M264.32,471.09c0.37-2.46,2.31-1.91,3.87-1.94c4.79-0.1,9.59-0.14,14.38-0.2c1.49-0.03,2.98-0.17,4.45-0.06
	c10.07,0.77,13.79,4.97,13.42,15.05c-0.05,1.32-0.11,2.66-0.3,3.96c-1.2,8.36-1.21,8.3,7.56,8.18c11.55-0.16,23.08-0.7,34.57-1.94
	c3.59-0.39,7.26-0.01,10.89,0.02c0,2.8-3.17,1.21-3.98,2.89c-5.65,0.01-11.31,0.03-16.96,0.04c-4.23,2.15-8.59,3.1-13.44,2.69
	c-5.78-0.49-11.61,0.34-17.39,0.77c-6.72,0.5-9.72-4.37-13.17-8.39c-1.74-2.03-0.26-4.44,2.39-4.64c3.69-0.27,5.47-1.61,5.26-5.5
	c-0.22-4.15-2.4-6.62-6.26-7.21c-6.53-0.98-12.92-3.1-19.68-2.38C268.01,472.65,265.89,472.76,264.32,471.09z"/>
<path class="st47" d="M225.11,549.08c3.65-0.61,7.03,0.28,10.27,1.89c1.52-0.75,3.31-0.53,4.21,0.49
	c4.09,4.66,10.86,4.68,15.12,9.07c1.83,1.89,4.51,2.7,7.05,3.57c3.29,1.13,6.43,2.75,9.8,3.61c1.9,0.49,2.69,3.66,4.97,2.32
	c2.18-1.28,3.09-3.82,4.19-6.05c0.06-0.13,0.12-0.28,0.19-0.46c3.12-7.91,3.12-7.91,11.91-7.92c4.15-0.01,8.3,0.05,12.46-0.11
	c11.53,0.11,23.06-0.68,34.57,0.43c0.61,0.23,1.12,0.61,1.52,1.13c-6.73,1.41-13.56,1.22-20.37,1.31
	c-4.88,0.27-9.77-0.16-14.65,0.23c-5.47,0.06-10.94,0.3-16.4,0.1c-2.93-0.11-4.26,0.99-4.83,3.69c-0.51,2.43-1.2,4.82-1.89,7.2
	c-1.3,4.53-4.31,6.3-8.72,4.63C257.12,567.66,240.76,559.05,225.11,549.08z"/>
<path class="st48" d="M497.05,311.18c-1.47,0.52-2.35-1.11-3.77-1.06c-1.14,2.53,1.46,4.72,0.68,7.2c-0.62-0.05-1.66-0.35-1.78-0.13
	c-4.93,8.96-13.65,9.52-22.31,10.01c-10.57,0.59-10.2,0.62-13.14,10.66c-2.5,8.53-3.97,17.38-7.67,25.56
	c-0.84-6.25,1.84-11.81,3.2-17.67c0.88-3.76,2.72-7.27,2.8-11.28c0.15-7.53,2.04-8.94,9.68-9.2c9.05-0.31,17.9-1.42,24.37-9.02
	c2.17-2.55,2.68-4.76,0.28-7.39c-3.08-3.38-5.41-8.36-9.2-9.97c-5.27-2.24-8.19-7.05-13-9.26c-2.39-1.1-2.15-2.52-2.13-4.31
	c8.72,5.06,16.35,11.62,23.59,18.49C491.37,306.38,495,307.89,497.05,311.18z"/>
<path class="st49" d="M400.26,229.4c-4.07,0.18-6.41-3.22-9.06-5.19c-9.5-7.07-19.45-6.36-29.22-2.15
	c-10.43,4.49-20.64,9.69-30.37,15.54c-9.77,5.87-20.81,8.98-30.42,15.03c-1.43,0.9-2.79,0.83-4.27,0.74c7.9-6.1,17.32-9.41,26-14.07
	c11.35-6.11,23.27-11.19,34.45-17.58c14.41-8.22,27.36-6.99,39.64,3.87C398.48,226.52,400.56,226.95,400.26,229.4z"/>
<path class="st50" d="M282.78,360.36c-2.87,0.21-1.47-2.1-1.38-2.94c0.99-8.69,4.91-12.1,13.59-12.09c9.8,0,9.24-0.21,12.73-9.41
	c3.71-9.8,6.91-20.12,15.36-27.36c0.6-0.51,1.37-0.81,2.06-1.21c0.71,0.63,0.62,1.29,0.06,1.97c-7.93,10.98-14.12,22.79-16.96,36.16
	c-0.55,2.58-1.96,3.63-4.54,3.52c-2.32-0.1-4.65-0.05-6.97,0.02c-10.3,0.33-8.26-1.91-12.72,8.66
	C283.63,358.57,283.19,359.46,282.78,360.36z"/>
<path class="st51" d="M341.36,557.05c-0.39-0.09-0.78-0.18-1.17-0.27c0.71-3.3,3.87-2.74,5.99-3.82c4.82,0,9.65-0.03,14.47,0
	c6.4,0.03,12.37-1.97,18.49-3.52c4.34-1.1,8.97-0.91,13.4-2.36c5.81-1.9,11.99-2.71,17.75-4.72c2.06-0.72,3.96-1.31,6.09-1.38
	c1.31-0.04,2.92,0.31,3.79-0.82c3.22-4.15,7.66-3.18,11.91-3.12c-12.08,5.61-24.96,8.74-37.78,12.03
	c-14.3,3.67-28.89,5.74-43.52,7.57C347.68,557.04,344.51,556.93,341.36,557.05z"/>
<path class="st52" d="M265.33,269.48c-0.54,2.5-2.58,4.23-4.42,5.07c-5.72,2.62-11.06,6.35-16.84,8.26
	c-5.26,1.75-9.35,5.1-14.27,7.11c-5.92,2.43-11.71,5.19-17.67,7.5c-3.55,1.37-6.12,5.43-10.71,3.98c3.71-3.2,8.34-4.73,12.63-6.82
	c15.06-7.32,30.33-14.2,44.79-22.7C260.79,270.74,262.88,269.49,265.33,269.48z"/>
<path class="st53" d="M417.02,431.04c3.64-5.37,8.68-9.43,13.29-13.87c2.87-2.76,5.28-5.6,4.66-9.82c-0.47-3.19,1.54-5.7,2.38-8.37
	c2.23-7.06,2.97-14.54,5.85-21.33c1.37-3.24,1.95-6.31,1.83-9.66c-0.1-2.75,1.71-2.8,3.65-2.75c-4.22,15.65-8.23,31.36-12.76,46.92
	c-1.71,5.86-6.91,9.54-10.93,13.89c-1.5,1.05-2.47,2.68-3.88,3.76C420.01,430.67,418.99,432.79,417.02,431.04z"/>
<path class="st54" d="M309.24,213.53c5.01-8.19,4.4-17.76,5.42-26.64c1.14-9.9,3.26-19.77,2.85-29.92
	c-0.23-5.63-1.45-10.63-4.19-15.39c6.28-0.17,5.44,5.87,5.55,8.5c0.37,8.4,1.08,16.82-1.1,25.4c-1.55,6.1-1.65,12.85-2.21,19.29
	c-0.57,6.57-0.66,13-4.32,18.76C310.57,214.13,309.9,214.06,309.24,213.53z"/>
<path class="st55" d="M417.99,453.07c-6.15,1.88-12.42,1.24-18.82,0.74c8.66-4.2,18.16-6.67,25.9-12.67c2.93-0.86,3,0.97,2.33,2.81
	c-0.54,1.46-1.35,2.91-2.43,4.12l-0.01,0.01C423.66,451.16,420.89,452.2,417.99,453.07z"/>
<path class="st56" d="M191.4,333.36c7.44-0.01,14.89-0.09,22.33,0c4.73,0.06,6.77,3.44,4.97,7.65c-2.72,6.37-4.53,13.04-5.24,19.92
	c-0.27,2.62-1.18,3.98-3.7,4.31c1.09-8.06,3.47-15.82,5.92-23.53c1.32-4.13,0.71-5.7-3.94-5.6c-4.95,0.11-9.92-0.5-14.88-0.82
	C194.88,335.16,192.92,334.86,191.4,333.36z"/>
<path class="st57" d="M205.38,385.12c1.68,7.87-2.23,14.62-4.65,21.56c-2.22,6.38-3.31,13.06-5.51,19.34
	c-2.61,7.43-1.22,14.9-1.87,22.32c-3.51-5.86-2.73-12.36-1.4-18.31c2.49-11.15,5.44-22.24,9.3-33.04c1.48-3.3,1.35-7.02,2.66-10.38
	C204.22,385.82,204.25,385.02,205.38,385.12z"/>
<path class="st58" d="M349.17,497.05c0.01-2.78,3.09-1.33,3.98-2.89c15.25-2.41,30.51-4.82,45.76-7.22
	c2.69,0.86,2.64,1.16-0.08,2.21c-6.11,2.36-12.61,2.17-18.89,3.27C369.74,494.2,359.66,497.08,349.17,497.05z"/>
<path class="st56" d="M201.44,301.4c-1.16,2.87-3.6,4.32-6,6.07c-4.74,3.46-10.45,6.34-10.1,13.79c0.12,2.61,1.14,4.32,2.89,5.91
	c1.83,1.67,3.79,3.27,3.18,6.2c-8.4-2.2-12.12-12.62-6.85-19.66C188.89,307.93,194.82,304.15,201.44,301.4z"/>
<path class="st59" d="M532.81,301.32c0.64-0.04,1.28-0.08,1.91-0.12c0.21,0.18,0.43,0.36,0.65,0.53c2.53,6.15,2.56,6.09,9.55,6.23
	c6.25,0.13,12.59-0.81,18.68,1.63c1.89,0.76,3.92,0.03,5.82-0.67c2.39-0.88,4.8-1.37,7.17,0.11c0.65,0.72,0.87,1.46,0.17,2.28l0,0
	c-4.57,1.4-8.66,3.33-14.09,1.85c-6.92-1.89-14.42-0.91-21.67-0.73c-2.95,0.07-5.57-0.79-8.05-1.96
	C528.85,308.54,528.88,303.97,532.81,301.32z"/>
<path class="st60" d="M534.72,301.2c6.72-2.98,13.93-3.28,21.09-3.84c6.14-1.04,12.31-1.77,18.54-1.43
	c3.36,0.19,5.92,1.24,4.44,5.46c-4.74,0.43-9.46-0.33-14.14-0.65c-7.86-0.53-15.22,2.88-23.01,2.16c-2.26-0.21-4.66,0.3-6.62-1.34
	L534.72,301.2z"/>
<path class="st61" d="M341.25,425.09c5.09,2.64,9.09,6.83,14.29,9.44c11.3,5.67,23.21,7.03,35.54,6.53
	c-0.54,1.41-1.61,2.04-3.07,2.04c-5.45,0.01-10.94,0.39-16.34-0.14c-3.46-0.34-6.41-2.83-9.85-3.95
	c-7.2-2.36-14.32-5.28-19.54-11.27C341.6,426.96,341.14,426.16,341.25,425.09z"/>
<path class="st62" d="M532.81,301.32c-3.44,4.49-2.52,7.6,2.61,9.18c2.09,0.64,4.18,0.88,6.36,0.88c8.12-0.01,16.24-0.11,24.26,1.5
	c3.71,0.75,7.02-1.81,10.7-1.57c-3.03,3.23-7.49,5-11.01,3.66c-6.24-2.39-12.38-1.2-18.54-1.58c-5.2-0.32-10.53,0.68-15.36-2.28
	c-2.86-1.75-3.1-4.36-2.94-7.3C529.05,301.01,531,301.36,532.81,301.32z"/>
<path class="st63" d="M213.26,189.71c-3.57-0.18-6.73-3.09-10.46-1.83c-7.05,2.38-10.59,1.86-9.24,13.48
	c0.63,1.1,0.83,2.18-0.14,3.2c-3.56-2.37-5.03-5.78-3.7-9.74c1.69-5.05,5.25-8.54,10.76-9.16c3.25-0.36,6.59,0.05,9.87-0.11
	c2.99-0.15,3.69,2.28,5.03,4.03C214.72,190.2,214.01,190.16,213.26,189.71z"/>
<path class="st64" d="M508.05,253.55c0.94-0.03,1.88-0.07,2.81-0.1c0.76-0.56,1.49-0.57,2.18,0.11c-0.72,2.82-4.15,3.46-5.41,3.42
	c-5.88-0.16-11.14,3.09-17.02,2.51c-4.23-0.42-6.69-2.84-7.55-6.57c-1.04-4.52,1.56-8.35,5.76-9.55c0.36,0.36,0.56,0.8,0.58,1.32
	c-0.1,1.4-1.37,2.22-1.77,3.49c-1.44,4.66,1.16,8.33,6.04,8.26C498.65,256.37,503.16,253.98,508.05,253.55z"/>
<path class="st65" d="M449.06,177.63c0.72-5.29,5.3-8.24,7.66-12.56c2.99-5.47,6.26-10.69,6.26-17.28c0-2.96-2.32-5.15-2.09-8.07
	c3.53,2.72,5.16,8.91,3.91,13.6c-2.18,8.18-7.44,14.62-11.88,21.53C452.03,176.25,451,177.6,449.06,177.63z"/>
<path class="st66" d="M361.16,451.15c-2.67-0.66-5.34-1.32-8.01-1.98l-0.01-0.01c-2.79-1.12-5.89-1.66-7.96-4.17
	c-8.37-6.19-16.63-12.47-22.52-21.29c-0.74-1.11-1.67-2.02-1.54-3.47c5.76,4.76,9.92,11.09,15.79,15.82
	c4.59,3.7,8.98,7.34,14.69,9.37C355.04,446.63,357.99,449.19,361.16,451.15z"/>
<path class="st67" d="M416.97,157.59c-3.9,7.6-4.32,16.34-7.88,24.07c-0.61,1.33-0.81,2.85-1.91,3.95
	c-0.63,0.45-0.95,1.57-2.07,0.96c-1.08-3.06,1.04-5.5,2.1-7.82c3.91-8.56,5.25-17.86,8.47-26.59c0.12-0.32,0.86-0.4,1.32-0.59
	c0.73,0.54,1,1.3,1.04,2.17C418.02,155.12,418.16,156.54,416.97,157.59z"/>
<path class="st68" d="M401.11,201.57c0.76,4.26-1.73,8.28-0.49,12.76c1.04,3.76,2.73,5.38,6.45,5.27c3.31-0.1,6.62-0.11,9.93-0.15
	c-0.05,1.8-1.26,2.07-2.7,2.07c-2.3,0.01-4.6,0.05-6.9,0.03c-4.45-0.03-8.82-3.25-10.18-7.44
	C395.81,209.73,397.42,204.53,401.11,201.57z"/>
<path class="st69" d="M289.38,197.42c3.36,2.42,2.44,6.46,3.37,9.7c2.83,9.79,4.65,11.1,14.46,8.35c0.56,0.66,0.64,1.33,0.03,2
	c-4.09,1.25-8.07,3.24-12.35,0.12c-1.56-1.14-3.13-2.43-3.27-4.01C291.12,208.15,287.85,203.11,289.38,197.42z"/>
<path class="st70" d="M325.21,309.31c-0.02-0.65-0.04-1.31-0.06-1.97c7.19-9.54,16.52-16.3,27.36-21.12
	c1.58-0.7,3.09-1.03,4.76-0.78C344.96,291.22,334.15,299,325.21,309.31z"/>
<path class="st71" d="M546.83,237.48c0.52-1.37,1.85-1.83,2.93-2.58c8.16-5.66,9.56-9.52,7.09-19.42c-0.59-0.77-0.68-1.5,0.18-2.15
	c5.77,6.53,4.5,16.84-2.83,20.89C551.88,235.5,550.16,238.43,546.83,237.48z"/>
<path class="st72" d="M446.1,269.37c-2.69,0.59-4.69-0.43-6.6-2.35c-3.09-3.12-5.76-6.7-10.14-8.41c-1.9-0.74-2.6-2.88-2.39-5.04
	c0.34-0.43,0.75-0.47,1.19-0.17C433.89,259,440.74,263.35,446.1,269.37z"/>
<path class="st62" d="M578.83,301.36c0.12-4.05-2.46-4.8-5.8-5.04c-5.8-0.42-11.42,1.78-17.21,1.04c6.73-3.08,13.88-2.18,20.88-1.86
	c4.03,0.18,5.64,4.92,5.42,7.15c-0.3,2.99-0.11,8.02-5.37,8.67c0.02-0.64,0.04-1.29,0.06-1.93c0.07-0.21,0.14-0.42,0.2-0.63
	c1.58-1.99,1.6-4.39,1.72-6.75C578.76,301.79,578.8,301.57,578.83,301.36z"/>
<path class="st73" d="M283.38,162.45c0.53,0.61,1.54,1.24,1.52,1.83c-0.27,9.58,4.38,18.35,4.46,27.85c0.01,0.82-0.07,1.64-0.1,2.46
	c-3.5-9.28-5.2-18.94-6.08-28.77C282.74,164.67,282.4,163.52,283.38,162.45z"/>
<path class="st72" d="M465.11,285.32c-0.66,0.01-1.58,0.32-1.94,0c-5.8-5.21-13.15-8.77-17.09-15.97
	C453.02,273.96,459.7,278.88,465.11,285.32z"/>
<path class="st74" d="M283.38,162.45c-0.07,1.12-0.13,2.25-0.2,3.37c-3.46-5.09-1.17-10.88-1.97-16.29
	c-0.96-6.45,1.9-10.23,7.96-11.93c0.82-0.57,1.58-0.52,2.29,0.19c-2.42,2.96-7.57,3.08-8.23,7.88c-0.75,3.98-0.79,7.96,0.02,11.94
	C283.3,159.23,283.34,160.84,283.38,162.45z"/>
<path class="st75" d="M400.26,229.4c-1.09-1.27-2.17-2.54-3.26-3.82c1.48-0.09,2.89-0.19,4.12,1.05c4.5,4.55,9.13,8.96,14.5,12.5
	c0.89,0.58,1.43,1.35,1.37,2.45c-0.69,0.53-1.37,0.48-2.03-0.07C410.06,237.48,405.16,233.44,400.26,229.4z"/>
<path class="st76" d="M291.46,137.79c-0.76-0.06-1.53-0.13-2.29-0.19c0.05-0.16,0.06-0.38,0.17-0.46c5.66-4.17,20.2-1.47,23.95,4.45
	c-0.66-0.03-1.53,0.21-1.93-0.13C305.39,136.52,298.35,137.59,291.46,137.79z"/>
<path class="st77" d="M421.08,214.56c3.43-5.46,5.73-11.86,12.23-14.78c-2.29,5.41-5.25,10.33-10.08,13.9
	C422.52,214,422.16,215.15,421.08,214.56z"/>
<path class="st78" d="M449.19,132.49c-6.86-1.74-13.59-0.81-20.26,1.07c0.82-2.93,3.53-3.44,5.77-3.68
	c3.89-0.42,7.85-0.08,11.79-0.14C448.42,129.72,449.05,130.83,449.19,132.49z"/>
<path class="st79" d="M528.96,245.65c-0.17-3.05,2.91-2.71,4.25-3.22c3.98-1.51,6.56-6.6,11.81-4.85
	C540.59,242.12,535.05,244.43,528.96,245.65z"/>
<path class="st80" d="M231.36,221.53c-2.59-4.41-5.65-8.61-5.97-13.99C231.05,210.64,232.01,215.74,231.36,221.53z"/>
<path class="st81" d="M211.27,221.64c4.56,2.07,7.33,5.97,10.14,9.83c0.57,0.59,0.59,1.25,0.24,1.95c-1.2,0.79-1.66-0.2-2.23-0.93
	C216.52,229,212.01,226.73,211.27,221.64z"/>
<path class="st82" d="M414.97,241.52c0.68,0.02,1.35,0.05,2.03,0.07c3.97,3.7,8.49,6.88,11.17,11.8c-0.4,0.06-0.8,0.11-1.19,0.17
	C422.49,250.02,418.46,246.04,414.97,241.52z"/>
<path class="st83" d="M536.85,210.49c-5.54,2.64-10.24,6.78-16.08,8.88c3.94-5.58,9.78-8.11,16.03-10c0.32,0.24,0.44,0.48,0.34,0.73
	C537.05,210.36,536.95,210.49,536.85,210.49z"/>
<path class="st84" d="M405.12,186.58c0.69-0.32,1.38-0.64,2.07-0.96c-1.16,5.65-2.21,11.34-6.05,15.98
	C400.27,196.01,404.19,191.69,405.12,186.58z"/>
<path class="st85" d="M513.05,253.56c-0.73-0.04-1.45-0.07-2.18-0.11c5.15-2.45,10.22-5.11,15.92-6.13
	C523.07,251.29,518.52,253.44,513.05,253.56z"/>
<path class="st86" d="M417.02,431.04c3.52-0.28,4.68-4.34,7.97-4.98c-4.02,6.96-10.61,9.69-18.07,10.99
	C409.97,434.52,414.14,433.87,417.02,431.04z"/>
<path class="st87" d="M231.42,225.43c-0.03-1.3-0.05-2.59-0.08-3.89c4.62,3.72,5.5,10.73,2,15.84c-0.75-0.81-1.14-1.77-1.17-2.87
	C232.41,231.45,232.77,228.37,231.42,225.43z"/>
<path class="st88" d="M225.33,207.58c-3.37-3.55-5.29-8.06-7.91-12.1c-0.63-0.68-0.54-1.35,0.04-2.01
	C222.41,196.88,223.95,202.19,225.33,207.58z"/>
<path class="st78" d="M417.16,153.67c-0.05-0.7-0.1-1.4-0.15-2.09c1.85-5.13,3.61-10.3,7.98-13.99c0.9,2.53-1.99,3.8-1.99,6.03
	C421.07,146.98,421.36,151.63,417.16,153.67z"/>
<path class="st89" d="M536.85,210.49c-0.02-0.37-0.03-0.75-0.05-1.12c5.37-2.63,10.71-3.55,15.98,0.24
	C547.46,209.79,542.07,208.55,536.85,210.49z"/>
<path class="st90" d="M335.29,317.42c-2.51,4.08-4.4,8.59-8.17,11.8c-0.14-4.53,4.88-6.85,4.97-11.36
	C332.09,317.69,334.17,317.56,335.29,317.42z"/>
<path class="st91" d="M233.34,234.44c0,0.98,0,1.96,0.01,2.94c-2.3,0.06-4.62,0.01-6.91,0.2c-3.87,0.33-6.28-1.21-7.02-5.1
	c0.67,0.31,1.35,0.62,2.02,0.93C225.33,234.59,229.23,235.69,233.34,234.44z"/>
<path class="st92" d="M205.38,385.12c-2.52,3.56-1.02,8.52-4.13,11.88c-0.71-5.05,2.56-9.44,2.36-14.43
	c-0.04-0.91,0.91-1.25,1.79-1.33C205.39,382.54,205.39,383.83,205.38,385.12z"/>
<path class="st93" d="M193.42,204.56c0.05-1.07,0.09-2.13,0.14-3.2c3.12,3,6.49,5.82,7.91,10.14
	C197.54,210.64,196.79,206.08,193.42,204.56z"/>
<path class="st65" d="M442.11,187.62c1.29-4.04,3.47-7.46,6.95-9.97C448.64,182.3,445.96,185.37,442.11,187.62z"/>
<path class="st94" d="M512.94,225.56c-1.67,3.47-4.34,5.81-7.99,7.01c-0.28-0.24-0.4-0.5-0.35-0.78c0.06-0.29,0.12-0.43,0.21-0.43
	C506.47,227.94,509.64,226.67,512.94,225.56z"/>
<path class="st95" d="M504.81,231.36c0.05,0.4,0.09,0.81,0.14,1.21c-2.84,1.36-4.08,5.22-7.89,5.06
	C498.47,234.09,500.72,231.59,504.81,231.36z"/>
<path class="st96" d="M203.44,213.5c2.61,1.4,4.87,3.14,5.82,6.12C205.21,219.59,203.19,217.63,203.44,213.5z"/>
<path class="st97" d="M434.98,197.5c1.72-2.86,1.6-7.07,5.9-8.03C439.81,192.81,438.97,196.31,434.98,197.5z"/>
<path class="st98" d="M424.97,448.07c0.52-1.37,1-2.76,1.59-4.1c0.71-1.62,0.19-2.5-1.48-2.82c0.68-1.18,1.44-2.37,2.98-1.24
	c1.2,0.89,1.28,2.42,0.81,3.56C428.1,445.35,427.03,447.19,424.97,448.07z"/>
<path class="st99" d="M520.04,219.67c-1.74,2.72-3.78,5.08-7.14,5.81C512.45,220.07,517.38,221.26,520.04,219.67z"/>
<path class="st100" d="M421.08,214.56c0.71-0.3,1.43-0.59,2.14-0.88c-0.21,3.95-2.01,6.17-6.24,5.76
	C417.3,216.93,419.91,216.35,421.08,214.56z"/>
<path class="st101" d="M496.1,499.12c2.31-2.01,4.63-4.01,6.94-6.02c0.4-0.4,0.75-0.36,1.06,0.11
	C502.45,496.55,500.84,499.95,496.1,499.12z"/>
<path class="st102" d="M504.11,493.2c-0.35-0.04-0.71-0.07-1.06-0.11c2.17-3.11,4.58-5.98,7.92-7.92
	C509.26,488.36,507.78,491.71,504.11,493.2z"/>
<path class="st103" d="M481.03,455.2c-1.78,3.26-4.89,4.63-8.17,5.77C474.35,457.3,477.9,456.54,481.03,455.2z"/>
<path class="st51" d="M306.35,558.59c4.87-1.16,9.75-0.76,14.65-0.23C316.12,559.09,311.24,558.96,306.35,558.59z"/>
<path class="st104" d="M488.96,244.51c-0.04-0.38-0.08-0.75-0.12-1.13c2.35-2.48,4.7-4.96,8.24-5.72c-0.05,0.6-0.1,1.21-0.15,1.81
	C494.2,241.04,492.66,244.48,488.96,244.51z"/>
<path class="st105" d="M217.46,193.47c-0.01,0.67-0.03,1.34-0.04,2.01c-2.83-0.89-2.95-3.72-4.15-5.78
	c0.71-0.04,1.42-0.09,2.13-0.13C216.03,190.9,217.43,191.82,217.46,193.47z"/>
<path class="st106" d="M458.95,137.71c-2.42-0.7-5-1.16-6.01-3.98C456.2,133.16,458.03,134.75,458.95,137.71z"/>
<path class="st98" d="M417.99,453.07c2.32-1.66,4.65-3.32,6.97-4.99C424.42,452.23,421.75,453.4,417.99,453.07z"/>
<path class="st103" d="M472.83,460.99c-2.09,2.39-4.93,3.34-7.89,4.05C466.81,462.21,469.57,461.11,472.83,460.99z"/>
<path class="st107" d="M307.24,217.48c-0.01-0.67-0.02-1.34-0.03-2c0.39-0.94,1.07-1.59,2.03-1.94c0.67,0,1.33,0,2,0
	C310.73,215.68,309.39,216.98,307.24,217.48z"/>
<path class="st89" d="M557.02,213.33c-0.06,0.72-0.12,1.43-0.18,2.15c-1.36-1.95-2.71-3.91-4.07-5.86
	C555.31,209.57,556.37,211.22,557.02,213.33z"/>
<path class="st108" d="M472.9,516.96c1.05-2.76,3.55-3.36,6.01-3.99C477.46,515.12,475.51,516.54,472.9,516.96z"/>
<path class="st109" d="M361.26,661.52c4.15,0,8.3-0.02,12.45,0.01c2.13,0.01,4.22,0.48,4.32,3.06c0.11,2.99-2.23,3.35-4.5,3.33
	c-8.14-0.08-16.27-0.27-24.41-0.34c-2.48-0.02-3.07-1.31-2.99-3.49c0.07-2.16,0.69-3.4,3.19-3.31c3.98,0.14,7.97,0.04,11.95,0.04
	C361.26,661.05,361.26,661.29,361.26,661.52z"/>
<path class="st110" d="M442.21,657.94c-7.07-0.03-10.22-2.75-11.83-9.14c-1.57-6.25-0.3-10.02,4.88-12.57
	c7.64-3.75,15.69-6.37,24.28-6.57c5.63-0.13,8.21,2.32,9.86,8.54c1.72,6.47,0.73,10.36-4.22,12.87
	C457.61,654.92,449.48,657.19,442.21,657.94z"/>
<path class="st10" d="M545.04,605c3.22-13.36,6.54-26.69,9.59-40.09c1.03-4.53,2.72-8.29,7.49-9.57c4.69-1.26,7.37,1.84,9.87,5.13
	c3.11,4.09,6.43,8.04,9.42,12.22c2.02,2.83,3.63,3.66,6.65,1.02c1.87-1.63,4.06-5.14,6.24-3.99c2.3,1.21,0.94,5.11,1.22,7.82
	c0.28,2.72,0.22,5.34-2.5,7.04c-0.78,0.49-1.14,1.48-0.48,2.14c3.88,3.83,0.13,5.25-2.18,7.12c-1.29,1.05-2.64,2.01-3.94,3.04
	c-1.32,1.04-2.75,1.6-3.84-0.07c-1.8-2.76-3.45-1.58-5.29-0.13c-6.39,5.03-12.86,9.95-19.2,15.05c-2.98,2.4-6.01,4.55-9.89,2.55
	c-3.82-1.97-3.24-5.77-3.15-9.25C545.04,605.04,545.04,605,545.04,605z"/>
<path class="st4" d="M532.02,620.94c-2.14-0.4-4.44,0.43-7.82-1.2c3.37-0.35,4.45-3.33,7.25-2.05c1.88,0.86,0.76,2.12,0.49,3.28
	C531.94,620.98,532.02,620.94,532.02,620.94z"/>
<path class="st4" d="M632.61,234.74c-10.45,0.08-18.12-7.32-18.23-17.58c-0.11-10.41,8.24-18.72,18.96-18.86
	c10.27-0.13,18.38,7.61,18.35,17.53C651.65,226.3,643.21,234.66,632.61,234.74z"/>
<path class="st111" d="M297.17,79.3c-0.02,11.52-7.49,13.93-17,15.66c-1.69,0.31-2.38-0.72-2.71-2.19
	c-2.14-9.39-4.28-18.78-6.47-28.15c-0.53-2.26,0.23-3.27,2.5-3.87C287.18,57.15,297.23,64.97,297.17,79.3z"/>
<path class="st112" d="M581.89,162.67c0.05,3.7-2.93,6.99-6.28,6.95c-2.72-0.03-9.62-5.07-9.56-6.97c0.04-1.25,8.07-9.22,9.22-9.15
	C577.56,153.63,581.85,159.56,581.89,162.67z"/>
<path class="st113" d="M594.79,144.53c-0.49,3.47-2.26,5.89-5.77,5.76c-2.99-0.11-5.98-1.25-6.71-4.78
	c-0.26-1.25,6.58-7.73,7.62-7.31C592.73,139.36,594.26,141.63,594.79,144.53z"/>
<path class="st114" d="M115.96,164.66c6.46,1.08,11.45,3.67,16.72,5.3c1.16,0.36,1.25,1.42,0.63,2.44
	c-0.17,0.28-0.42,0.51-0.61,0.78c-6.94,10.02-7.46,9.99-12.79-0.75C118.75,170.12,117.56,167.81,115.96,164.66z"/>
<path class="st115" d="M476.53,84.62c0.57,9.16,0.57,9.16-8.31,5.94c-5.28-1.92-5.26-1.9-1.62-6.23c2.23-2.65,4.37-5.39,6.58-8.06
	c0.5-0.61,1.02-1.42,1.99-1.14c1.02,0.3,0.89,1.29,0.95,2.07C476.3,79.66,476.4,82.14,476.53,84.62z"/>
<path class="st116" d="M201.27,96.1c4.31,3.46,8.62,6.94,12.95,10.37c1.3,1.03,1.06,1.88-0.13,2.73c-0.27,0.19-0.58,0.32-0.85,0.51
	c-9.83,6.96-10.1,6.85-11.88-5.11c-0.38-2.58-0.77-5.16-1.15-7.74C200.56,96.6,200.91,96.35,201.27,96.1z"/>
<path class="st117" d="M394.48,633.34c-0.29-1.44-0.2-2.77,1.58-3.04c3.6-0.55,7.21-1.05,10.82-1.45c1.83-0.2,2.03,1.17,2.21,2.59
	c1.74,13.64,3.43,27.28,5.34,40.89c0.45,3.18-0.71,3.94-3.6,4.28c-10.71,1.28-10.65,1.37-11.97-9.28
	C397.45,656,395.95,644.67,394.48,633.34z"/>
<path class="st45" d="M345.19,444.99c2.89,0.94,5.64,2.14,7.96,4.17C349.66,449.36,346.27,449.39,345.19,444.99z"/>
<path class="st58" d="M346.18,552.97c-1.1,2.67-4.47,1.8-5.99,3.82c-11.97,0.03-23.95,0.07-35.92,0.11c-1-1.01-1.38-2.3-1.33-3.64
	c0.12-3.69-0.91-6.38-4.95-7.49c-2.49-0.68-2.76-2.99-2.51-5.32c0.36-3.42,0.83-6.84,0.57-10.37c-1.82,1.87-1.14,4.29-1.42,6.5
	c-0.26,2.06,0.14,4.92-2.9,4.89c-2.96-0.03-3.84-2.81-3.46-5.1c1.24-7.49-0.85-14.86-0.46-22.32c0.21-3.98,0.74-7.27,5.22-8.41
	c0.76-0.19,1.72-0.58,1.65-1.57c-0.1-1.3-1.31-1.33-2.26-1.46c-2.48-0.32-4.58,0.26-5.97,2.59c-1.2,2.01-2.92,3.39-5.36,2.4
	c-2.57-1.04-2.99-3.41-2.73-5.84c0.37-3.46,0.67-6.98,3.57-9.53c1.01-0.89,1.53-2.13,2.01-3.39c3.46-9.18,2.12-11.2-7.63-11.34
	c-3-0.04-6.02-0.13-8.79-1.35c-2.08-0.91-4.51-1.86-3.21-5.04c0,0,0.02-0.02,0.02-0.02c8.73-0.62,17.31,0.61,25.88,2.03
	c5.62,0.93,9.68,9.29,6.64,14.08c-1.18,1.87-3.2,2.26-5.29,1.48c-1.28-0.48-2.32-0.36-2.9,0.94c-0.68,1.51-0.01,2.82,1.4,3.16
	c2.07,0.51,2.77,1.92,3.69,3.58c1.19,2.16,3.31,2.93,5.9,2.74c10.85-0.83,21.78-0.14,32.57-2c-0.65,0.96-1.38,1.87-1.94,2.88
	c-1.3,2.31-1.6,4.17,2.05,4.1c1.86-0.04,3.86,0.19,4.61,2.19c0.95,2.54-1.41,3.25-2.83,4.57c-3.32,3.1-2.08,7.14-1.41,10.74
	c0.58,3.15,3.54,3.41,6.36,3.49c6.71,0.18,7.86,1.78,6.57,8.23c-0.63,3.17-1.83,6.44,3.63,7.13c2.58,0.33,2.73,3.02,0.36,4.85
	c-2.76,2.14-5.63,4.09-9.18,4.68c-0.82,0.14-1.9,0.21-1.79,1.23c0.14,1.27,1.16,1.33,2.28,1.01
	C342.76,551.66,344.53,552.01,346.18,552.97z"/>
<path class="st36" d="M460.5,513.09c-2.51-0.52-5.26-0.79-5.46-4.34c-0.14-2.41,0.95-3.71,3.46-3.68c3.61,0.04,5.27,2.95,6.08,5.47
	C465.18,512.46,462.33,512.72,460.5,513.09z"/>
<path class="st46" d="M264.3,471.1c0.95,5.01,5.36,4.25,8.67,4.88c2.73,0.52,5.63,0.01,8.45,0.15c4.81,0.24,7.08,2.56,5.64,7.05
	c-1.22,3.81-1,8.24-5.21,11.24c-2.88,2.05-2.28,6.59-2.14,10.16c0.05,1.26,1.02,2.46,2.71,2.39c1.55-0.06,2.23-0.98,2.86-2.31
	c1.53-3.19,7.33-4.91,10.37-3.25c1.17,0.64,1.61,1.63,1.52,2.89c-0.1,1.53-0.95,2.66-2.46,2.62c-5.3-0.13-5.24,3.19-5.57,7.22
	c-0.61,7.43,2.51,14.75,0.25,22.21c-0.5,1.64,0.11,4.22,2.3,4.24c2.5,0.03,1.41-2.5,1.53-3.94c0.18-2.14,0.02-4.32,0.09-6.48
	c0.06-1.96,1.03-3.2,3.11-3.02c2.22,0.2,1.93,2.04,1.78,3.43c-0.36,3.44-0.75,6.89-1.46,10.27c-0.4,1.91-0.4,3.82,1.65,3.87
	c6.33,0.15,6.02,4.37,5.87,8.68c-0.04,1.16,0,2.33,0.01,3.49c-5.47,0.01-10.94,0.12-16.41,0.01c-2.84-0.06-4.59,0.28-4.71,3.9
	c-0.14,4.26-3.21,7.47-5.42,10.9c-0.91,1.41-3.07,1.89-3.79,0.47c-2.79-5.51-8.86-4.54-13.19-6.91c-2.63-1.44-5.6-2.38-7.98-4.38
	c-2.53-2.14-5-4.36-8.72-3.98c-0.72,0.07-2.13-0.39-2.17-0.72c-0.41-4.01-4.02-3.89-6.49-5.21c-1.2-3.17-3.99-4.17-6.89-4.97
	c-6.36-1.76-7.08-3.1-5.64-9.09c1.07-4.46,1.15-8.86-2.82-12.3c-0.7-0.61-1.41-1.71-1.39-2.56c0.16-6.03-2.43-11.73-2.79-17.38
	c-0.47-7.27-2.99-14.26-2.45-21.57c0.18-2.37-0.86-3.72-3.2-4.27c-1-0.24-1.69-1.13-1.56-2.27c0.15-1.31,1.23-1.34,2.24-1.44
	C228.66,473.38,246.27,469.46,264.3,471.1z"/>
<path class="st118" d="M417.16,153.67c2.59-2.98,2.64-7.43,5.84-10.05c0.45,5.72-2.38,10.02-6.02,13.98
	C417.04,156.29,417.1,154.98,417.16,153.67z"/>
<path class="st73" d="M283.26,157.62c-1.55-3.98-1.53-7.96-0.02-11.95C283.24,149.65,283.25,153.63,283.26,157.62z"/>
<path class="st119" d="M488.96,244.51c2.71-1.59,4.67-4.37,7.97-5.03c-0.78,2.93-3.47,4.25-5.35,6.22c-2.08,2.18-3.81,4.4-1.97,7.36
	c1.9,3.05,5.47,3.32,7.93,1.98c3.53-1.92,6.96-1.45,10.51-1.49c-3.91,2.34-8.41,2.81-12.73,3.61c-3.12,0.58-6.72,1.05-8.55-2.97
	C485.02,250.36,485.83,247.19,488.96,244.51z"/>
<path class="st120" d="M233.34,234.44c-4.32,3.75-8.18,2.15-11.9-1.02c-0.01-0.65-0.02-1.3-0.03-1.95c0.65,0.03,1.35-0.08,1.96,0.11
	c7.88,2.46,7.88,2.48,8.06-6.15C234.11,228,233.27,231.32,233.34,234.44z"/>
<path class="st121" d="M535.03,301.58c11.62,0.81,22.9-3.34,34.56-2.28c3.21,0.29,6.51-0.23,9.24,2.06c0,0,0.01,0.02,0.01,0.02
	c-0.54,2.7-0.32,5.6-2.02,8.01c0,0-0.01,0-0.01,0c-2.75,0.09-5.43-0.33-8.07,1.52c-1.36,0.95-4.2,1.03-5.77,0.26
	c-6.82-3.31-13.97-1.32-20.94-1.74C535.75,309.04,534.73,308.17,535.03,301.58z"/>
<path class="st60" d="M576.82,309.39c0.13-2.81-0.91-5.91,2.02-8.01C580.54,304.65,580.78,307.55,576.82,309.39z"/>
<path class="st122" d="M565.31,574.95c2.66,3.36,4.51,5.8,6.48,8.15c1.1,1.31,0.97,2.38-0.29,3.37c-3.18,2.51-6.38,4.99-10.8,8.43
	C562.37,587.7,563.68,582.01,565.31,574.95z"/>
<path class="st38" d="M235.29,542.91c2.19-2.39,3.81-1.9,6-1.47C239.51,543.74,237.82,542.76,235.29,542.91z"/>
</svg>
